<?xml version="1.0" encoding="UTF-8"?>
<svg width="180px" height="170px" viewBox="0 0 180 170" version="1.1" xmlns="http://www.w3.org/2000/svg" xmlns:xlink="http://www.w3.org/1999/xlink">
    <!-- Generator: Sketch 64 (93537) - https://sketch.com -->
    <title>calendar</title>
    <desc>Created with Sketch.</desc>
    <g id="Page-1" stroke="none" stroke-width="1" fill="none" fill-rule="evenodd">
        <g id="calendar" transform="translate(-30.000000, -30.000000)">
            <g id="bounding-box">
                <polygon id="shape" points="0 0 240 0 240 240 0 240"></polygon>
            </g>
            <rect id="Rectangle" fill="#E8F7FF" fill-rule="nonzero" x="40" y="50" width="160" height="40"></rect>
            <rect id="Rectangle" stroke="#46AAF7" stroke-width="10" x="35" y="45" width="170" height="150" rx="15"></rect>
            <line x1="44" y1="85" x2="203" y2="85" id="Line-2" stroke="#46AAF7" stroke-width="10" stroke-linecap="square"></line>
            <rect id="Rectangle" stroke="#46AAF7" stroke-width="10" x="75" y="35" width="1" height="20" rx="0.5"></rect>
            <rect id="Rectangle-Copy" stroke="#46AAF7" stroke-width="10" x="165" y="35" width="1" height="20" rx="0.5"></rect>
            <rect id="Rectangle" stroke="#46AAF7" stroke-width="10" x="65" y="110" width="20" height="20" rx="8"></rect>
            <rect id="Rectangle-Copy-4" stroke="#46AAF7" stroke-width="10" x="65" y="150" width="20" height="20" rx="8"></rect>
            <rect id="Rectangle-Copy-2" stroke="#46AAF7" stroke-width="10" x="110" y="110" width="20" height="20" rx="8"></rect>
            <rect id="Rectangle-Copy-5" stroke="#46AAF7" stroke-width="10" x="110" y="150" width="20" height="20" rx="8"></rect>
            <rect id="Rectangle-Copy-3" stroke="#46AAF7" stroke-width="10" x="155" y="110" width="20" height="20" rx="8"></rect>
            <rect id="Rectangle-Copy-6" stroke="#46AAF7" stroke-width="10" x="155" y="150" width="20" height="20" rx="8"></rect>
        </g>
    </g>
</svg>