<?xml version="1.0" encoding="UTF-8"?>
<svg width="200px" height="120px" viewBox="0 0 200 120" version="1.1" xmlns="http://www.w3.org/2000/svg" xmlns:xlink="http://www.w3.org/1999/xlink">
    <!-- Generator: Sketch 64 (93537) - https://sketch.com -->
    <title>cash</title>
    <desc>Created with Sketch.</desc>
    <g id="Page-1" stroke="none" stroke-width="1" fill="none" fill-rule="evenodd">
        <g id="cash" transform="translate(-20.000000, -70.000000)">
            <g>
                <g id="bounding-box">
                    <polygon id="shape" points="0 0 240 0 240 240 0 240"></polygon>
                </g>
                <g id="Group" transform="translate(25.000000, 75.000000)" fill-rule="nonzero">
                    <path d="M20,25 L20,5 C20,2.23857625 22.2385763,0 25,0 L185,0 C187.761424,0 190,2.23857625 190,5 L190,85 C190,87.7614237 187.761424,90 185,90 L165,90 L165,90" id="Path" stroke="#46AAF7" stroke-width="10" fill="#E8F7FF"></path>
                    <circle id="Oval-Copy" fill="#FFFFFF" cx="85" cy="65" r="35"></circle>
                    <rect id="Rectangle" stroke="#46AAF7" stroke-width="10" fill="#E8F7FF" x="0" y="20" width="170" height="90" rx="10"></rect>
                    <circle id="Oval" stroke="#46AAF7" stroke-width="10" fill="#FFFFFF" cx="85" cy="65" r="30"></circle>
                    <path d="M87.3607748,91 L87.3607748,84.4523227 C94.2857143,83.3080685 98,78.5403423 98,73.1369193 C98,67.4792176 94.8523002,64.0464548 87.8014528,61.3765281 C82.4503632,59.2151589 80.1840194,57.7530562 80.1840194,55.1466993 C80.1840194,52.9853301 81.7578692,50.6968215 86.1646489,50.6968215 C88.6725115,50.6968215 91.1803741,51.2531525 93.6882367,52.3658146 C94.1930655,52.5897866 94.7838772,52.3621122 95.007854,51.8572853 C95.026074,51.8162179 95.041506,51.7739693 95.054045,51.7308266 L96.173649,47.8785698 C96.318426,47.3805196 96.058369,46.8544564 95.574751,46.6670319 C92.754514,45.5740592 90.14243,44.9890421 87.7384988,44.9119804 L87.7384988,39 L82.5762712,39 L82.5762712,45.2298289 C76.2179177,46.3740831 72.440678,50.5696822 72.440678,56.0366748 C72.440678,61.9486553 76.7215496,65 83.3317191,67.4156479 C87.9903148,69.1320293 90.1937046,70.9755501 90.1937046,73.8361858 C90.1937046,76.8875306 87.4866828,78.8581907 83.5205811,78.8581907 C81.1881579,78.8581907 78.26353,78.0843129 74.7466972,76.5365572 C74.2411966,76.3140379 73.6510384,76.5434873 73.42856,77.0490059 C73.4100953,77.0909618 73.3945371,77.1341376 73.3819955,77.1782279 L72.2425005,81.1841572 C72.1032927,81.6734468 72.3536158,82.1892598 72.824118,82.3826785 C76.6066361,83.9376334 79.7314458,84.7546542 82.1985472,84.8337408 L82.1985472,91 L87.3607748,91 Z" id="$" stroke="#46AAF7" stroke-width="3" fill="#46AAF7"></path>
                </g>
            </g>
        </g>
    </g>
</svg>