<?xml version="1.0" encoding="UTF-8"?>
<svg width="61px" height="175px" viewBox="0 0 61 175" version="1.1" xmlns="http://www.w3.org/2000/svg" xmlns:xlink="http://www.w3.org/1999/xlink">
    <!-- Generator: Sketch 64 (93537) - https://sketch.com -->
    <title>clipboard_jesse</title>
    <desc>Created with Sketch.</desc>
    <g id="Page-2" stroke="none" stroke-width="1" fill="none" fill-rule="evenodd">
        <g id="clipboard_jesse" transform="translate(0.000000, -0.000000)">
            <path d="M58.618897,30.8015934 C57.025897,27.8475934 54.207897,25.9075934 52.218897,23.2375934 C50.288897,20.6495934 49.252897,17.6395934 47.924897,14.7175934 C45.701897,9.82459345 41.769897,4.37959345 35.714897,5.65259345 L23.725897,9.15959345 C24.708897,15.9165934 22.964897,21.7585934 20.276897,27.8735934 C17.800897,33.5045934 15.537897,39.6585934 20.803897,44.4785934 C24.856897,48.1915934 29.993897,47.6745934 34.367897,45.0655934 C37.877897,42.9725934 41.125897,39.7715934 45.407897,41.4085934 C48.624897,42.6375934 51.936897,44.4395934 55.518897,43.8175934 C61.475897,42.7835934 60.804897,34.8505934 58.618897,30.8015934" id="Fill-301" fill="#F4DDB4"></path>
            <path d="M20.930897,41.6835934 C20.930897,41.6835934 15.031897,61.0345934 13.721897,66.1105934 C12.410897,71.1865934 17.487897,71.0225934 19.452897,68.5675934 C20.573897,67.1655934 25.066897,57.2725934 25.676897,50.2255934 C26.132897,44.9255934 23.391897,41.8805934 20.930897,41.6835934" id="Fill-302" fill="#88CFE8"></path>
            <path d="M43.865897,165.177593 C42.589897,163.878593 40.008897,163.929593 39.318897,165.881593 C39.080897,166.502593 37.959897,168.360593 39.018897,173.501593 L39.930897,173.501593 L39.930897,171.014593 L39.949897,170.745593 C40.081897,171.224593 40.257897,171.736593 40.433897,172.290593 C41.209897,174.730593 46.308897,174.808593 47.680897,173.780593 C48.056897,173.498593 47.211897,172.851593 46.469897,171.189593 C45.532897,169.090593 44.535897,165.863593 43.865897,165.177593" id="Fill-303" fill="#AB482C"></path>
            <path d="M44.608897,167.412593 C44.122897,165.869593 43.991897,165.500593 43.480897,163.329593 C43.766897,157.863593 44.710897,111.478593 42.693897,106.039593 L35.142897,107.850593 L40.237897,162.189593 C40.132897,163.567593 40.070897,165.232593 40.247897,166.529593 C40.577897,168.912593 43.689897,171.852593 44.930897,171.561593 C45.694897,171.381593 45.096897,168.955593 44.608897,167.412593" id="Fill-304" fill="#E8A489"></path>
            <path d="M33.415897,165.086593 C32.128897,162.045593 29.641897,166.712593 29.641897,166.712593 C29.093897,167.388593 28.446897,168.588593 26.771897,169.796593 C24.097897,171.729593 20.430897,173.757593 22.675897,174.201593 C24.199897,174.501593 26.621897,174.549593 28.407897,173.781593 C30.889897,172.715593 32.549897,170.653593 32.549897,170.653593 L32.234897,173.644593 L33.239897,173.527593 C33.239897,173.527593 35.276897,169.488593 33.415897,165.086593" id="Fill-305" fill="#AB482C"></path>
            <path d="M28.698897,105.868593 C26.974897,111.092593 29.209897,152.805593 29.850897,161.691593 C29.773897,163.528593 29.558897,165.309593 28.517897,166.906593 C27.550897,168.391593 26.175897,170.331593 24.920897,171.565593 C27.068897,172.129593 28.644897,171.067593 29.917897,170.108593 C31.358897,169.019593 32.240897,167.556593 32.722897,165.925593 C32.972897,165.089593 33.116897,164.205593 33.174897,163.307593 L36.469897,108.037593 L28.698897,105.868593" id="Fill-306" fill="#E8A489"></path>
            <path d="M35.264897,27.2905934 C37.006897,27.1315934 38.618897,26.5005934 40.138897,25.6415934 C40.918897,25.8085934 41.752897,25.8745934 41.969897,25.8435934 C45.255897,25.4065934 47.603897,22.4295934 48.639897,19.2165934 C50.837897,12.4015934 46.846897,3.66859345 41.004897,1.08359345 C37.389897,-0.51540655 32.459897,-0.20040655 28.636897,1.09059345 C24.373897,2.53059345 20.679897,7.49259345 19.939897,12.1295934 C17.629897,26.6415934 27.311897,28.0275934 35.264897,27.2905934" id="Fill-307" fill="#F4DDB4"></path>
            <path d="M47.903897,41.4805934 L40.092897,73.8495934 C40.092897,73.8495934 38.821897,75.0635934 35.609897,75.3205934 C32.398897,75.5775934 29.355897,74.4445934 29.355897,74.4445934 C29.050897,73.2345934 21.015897,41.4805934 21.015897,41.4805934 C21.015897,41.4805934 24.254897,40.5235934 28.774897,39.8885934 C32.146897,39.4125934 36.228897,39.1145934 40.210897,39.5215934 C42.905897,39.7985934 45.552897,40.3955934 47.903897,41.4805934" id="Fill-308" fill="#88CFE8"></path>
            <path d="M26.659897,57.8215934 C26.659897,57.8215934 38.987897,59.0975934 42.390897,56.5475934 C42.390897,56.5475934 38.138897,66.7535934 26.659897,57.8215934" id="Fill-309" fill="#6BACBE"></path>
            <path d="M48.307897,125.092593 C48.604897,107.148593 47.501897,82.8505934 40.094897,73.8495934 C40.094897,73.8495934 38.897897,76.3935934 29.355897,74.4445934 C29.355897,74.4445934 19.604897,79.0875934 22.903897,126.343593 C31.390897,126.715593 39.892897,126.232593 48.307897,125.092593" id="Fill-310" fill="#1E5264"></path>
            <path d="M40.210897,39.5215934 C38.757897,44.5085934 36.435897,51.8395934 35.096897,52.8435934 C33.386897,54.1255934 29.900897,43.4985934 28.774897,39.8885934 C32.146897,39.4125934 36.228897,39.1145934 40.210897,39.5215934" id="Fill-311" fill="#F8F2E9"></path>
            <path d="M35.037897,42.2915934 C33.475897,42.2915934 31.042897,41.8185934 31.042897,40.2555934 L31.795897,30.4925934 C31.795897,28.9295934 33.061897,27.6645934 34.621897,27.6645934 C35.403897,27.6645934 36.109897,27.9815934 36.622897,28.4935934 C37.133897,29.0045934 37.451897,29.7105934 37.451897,30.4925934 L38.128897,39.4265934 C38.582897,42.0665934 35.037897,42.2915934 35.037897,42.2915934" id="Fill-312" fill="#CA7A65"></path>
            <path d="M23.187897,19.9925934 C23.187897,19.9925934 19.817897,15.8265934 19.101897,20.0165934 C18.532897,23.3525934 21.603897,25.6375934 23.395897,24.9335934 C25.191897,24.2355934 23.187897,19.9925934 23.187897,19.9925934" id="Fill-313" fill="#E8A489"></path>
            <path d="M23.258897,20.7585934 C23.258897,20.7585934 20.889897,18.1445934 20.378897,19.4535934 C19.865897,20.7605934 20.278897,22.2535934 20.278897,22.2535934 C20.278897,22.2535934 20.430897,20.5185934 21.832897,21.2525934 C21.832897,21.2525934 20.996897,24.1325934 23.370897,22.9385934 C23.370897,22.9385934 24.274897,21.9505934 23.258897,20.7585934" id="Fill-314" fill="#CA7A65"></path>
            <path d="M24.575897,24.8955934 C24.380897,24.5625934 23.972897,24.3025934 23.555897,24.2245934 C23.124897,23.8575934 22.531897,23.8475934 22.045897,24.1155934 C21.054897,24.6655934 20.869897,26.2945934 21.722897,27.0265934 C22.499897,27.6935934 23.803897,27.5075934 24.394897,26.6855934 C24.740897,26.2075934 24.891897,25.4335934 24.575897,24.8955934" id="Fill-315" fill="#AB482C"></path>
            <path d="M46.137897,20.9815934 C45.839897,14.7735934 44.000897,8.49359345 39.471897,5.86259345 C37.094897,8.14959345 33.722897,9.33959345 30.759897,10.6165934 C28.041897,11.7845934 25.262897,13.0785934 23.463897,15.2565934 C23.091897,17.4415934 23.005897,19.7825934 23.116897,22.0935934 C23.516897,30.4335934 29.887897,35.0645934 36.642897,34.5915934 C42.989897,34.1485934 46.541897,29.3225934 46.137897,20.9815934" id="Fill-316" fill="#E8A489"></path>
            <path d="M13.435897,46.3595934 C13.435897,46.3595934 19.781897,44.2185934 23.735897,56.9775934 L4.27089699,58.3195934 L2.42089699,49.2075934 C2.42089699,49.2075934 7.30989699,45.0495934 13.435897,46.3595934" id="Fill-317" fill="#A18F74"></path>
            <path d="M4.48389699,56.2755934 L21.943897,56.1695934 C21.621897,55.4745934 21.485897,55.5495934 21.194897,55.3165934 C19.888897,54.2625934 17.687897,53.8145934 15.082897,53.6845934 C14.202897,53.6405934 13.269897,53.6165934 12.316897,53.6265934 C11.377897,53.6385934 10.482897,53.6585934 9.65589699,53.7225934 C7.15089699,53.9005934 5.27089699,54.4035934 4.66889699,55.4485934 C4.53789699,55.6755934 4.34789699,55.6005934 4.48389699,56.2755934" id="Fill-318" fill="#B6BABB"></path>
            <path d="M12.745897,51.5845934 C12.929897,52.1305934 12.570897,52.5795934 11.944897,52.5875934 C11.320897,52.5935934 10.663897,52.1645934 10.480897,51.6185934 C10.295897,51.0735934 10.653897,50.6285934 11.279897,50.6165934 C11.908897,50.6065934 12.563897,51.0385934 12.745897,51.5845934 Z M8.45989699,50.4655934 L10.436897,56.2645934 L15.896897,56.2335934 L13.972897,50.3845934 C13.582897,50.4085934 13.772897,50.4655934 13.664897,50.4685934 C12.875897,50.4855934 12.011897,49.9375934 11.705897,49.3905934 L10.057897,49.4245934 C10.121897,49.9695934 9.64189699,50.5365934 8.85289699,50.5495934 C8.73189699,50.5525934 8.46589699,50.4915934 8.45989699,50.4655934 L8.45989699,50.4655934 Z" id="Fill-319" fill="#B6BABB"></path>
            <path d="M4.48389699,56.2755934 L21.943897,56.1695934 C21.621897,55.4745934 21.461897,55.4765934 21.245897,55.4765934 L4.72389699,55.5985934 C4.51089699,55.6005934 4.34789699,55.6005934 4.48389699,56.2755934" id="Fill-320" fill="#A2A5A6"></path>
            <path d="M9.66889699,82.8655934 C9.83089699,83.3555934 10.331897,83.7785934 10.845897,83.8105934 L33.484897,84.9935934 C34.007897,85.0125934 34.269897,84.6095934 34.130897,84.0915934 L25.792897,55.0575934 C25.639897,54.5555934 25.094897,54.0795934 24.543897,54.0913713 L0.646896989,54.3725934 C0.104896989,54.3745934 -0.115103011,54.8345934 0.0578969894,55.3105934 L9.66889699,82.8655934" id="Fill-321" fill="#9D702F"></path>
            <path d="M26.179897,73.6825934 C26.377897,71.5435934 28.484897,71.8465934 30.405897,71.7415934 C29.806897,70.8255934 27.977897,70.7835934 26.989897,71.0195934 C26.970897,69.2735934 30.455897,69.7395934 31.398897,70.0215934 C33.513897,70.6535934 34.650897,71.4315934 36.765897,71.0375934 L36.765897,71.0335934 C36.765897,71.0335934 39.006897,70.0385934 41.856897,68.8515934 L41.826897,74.2325934 C38.877897,74.7655934 36.743897,75.0975934 36.743897,75.0975934 L36.743897,75.0475934 C35.472897,75.4885934 34.182897,75.5065934 33.264897,75.6775934 C32.305897,75.8535934 31.291897,75.9175934 30.329897,76.0505934 C29.655897,76.1475934 28.867897,76.5465934 28.217897,76.4985934 C28.194897,75.1305934 30.097897,74.9645934 30.942897,74.5905934 C29.416897,74.6255934 26.249897,74.9345934 26.179897,73.6825934" id="Fill-323" fill="#E8A489"></path>
            <path d="M44.306897,49.8665934 C44.537897,53.0205934 50.380897,65.6695934 50.380897,65.6695934 C48.492897,66.0475934 42.415897,68.3205934 39.458897,69.4565934 C38.457897,69.8375934 37.815897,70.0865934 37.815897,70.0865934 L38.268897,75.3675934 C38.881897,75.3355934 39.479897,75.2965934 40.057897,75.2495934 C51.624897,74.2995934 57.423897,70.1465934 57.423897,70.1465934 C55.081897,49.9475934 47.900897,41.6835934 47.900897,41.6835934 C45.121897,42.2325934 44.306897,49.8665934 44.306897,49.8665934" id="Fill-324" fill="#88CFE8"></path>
            <path d="M35.969897,25.3225934 C35.969897,25.3225934 34.697897,27.9735934 32.862897,25.5415934 L35.969897,25.3225934" id="Fill-326" fill="#CA7A65"></path>
            <path d="M37.944897,24.8235934 C38.063897,26.1925934 39.580897,27.1795934 41.333897,27.0275934 C43.085897,26.8755934 44.408897,25.6405934 44.290897,24.2725934 C44.170897,22.9065934 42.652897,21.9185934 40.903897,22.0695934 C39.149897,22.2215934 37.827897,23.4585934 37.944897,24.8235934" id="Fill-327" fill="#E37F6B"></path>
            <path d="M25.405897,25.9145934 C25.523897,27.2825934 27.040897,28.2695934 28.793897,28.1175934 C30.543897,27.9655934 31.868897,26.7305934 31.749897,25.3615934 C31.631897,23.9965934 30.112897,23.0075934 28.361897,23.1595934 C26.610897,23.3105934 25.287897,24.5475934 25.405897,25.9145934" id="Fill-328" fill="#E37F6B"></path>
            <path d="M36.553897,14.4385934 C37.042897,14.0315934 37.869897,13.9205934 38.473897,13.7745934 C39.183897,13.6005934 39.897897,13.5815934 40.614897,13.7275934 C42.047897,14.0215934 42.792897,14.9685934 43.556897,16.1155934 C43.641897,16.2415934 43.476897,16.4055934 43.357897,16.2995934 C42.476897,15.4945934 41.458897,14.7165934 40.264897,14.5105934 C39.530897,14.3835934 38.818897,14.5495934 38.118897,14.7505934 C37.625897,14.8925934 37.074897,15.0875934 36.590897,14.8475934 C36.420897,14.7635934 36.418897,14.5495934 36.553897,14.4385934" id="Fill-329" fill="#F4DDB4"></path>
            <path d="M30.211897,14.9895934 C29.659897,14.6725934 28.827897,14.7065934 28.204897,14.6665934 C27.476897,14.6185934 26.768897,14.7205934 26.090897,14.9905934 C24.727897,15.5255934 24.157897,16.5905934 23.601897,17.8485934 C23.540897,17.9875934 23.731897,18.1215934 23.831897,17.9945934 C24.557897,17.0515934 25.428897,16.1095934 26.569897,15.7015934 C27.270897,15.4505934 27.998897,15.4895934 28.723897,15.5675934 C29.235897,15.6225934 29.810897,15.7165934 30.246897,15.3985934 C30.397897,15.2875934 30.364897,15.0755934 30.211897,14.9895934" id="Fill-330" fill="#F4DDB4"></path>
            <path d="M33.789897,27.2135934 C34.243897,27.2735934 34.568897,27.5545934 34.646897,28.0155934 C35.126897,27.7845934 35.180897,27.2125934 35.639897,26.9925934 C36.104897,26.7705934 36.581897,27.0405934 37.054897,27.1465934 C37.884897,27.3315934 38.986897,26.9755934 39.285897,26.1805934 C38.645897,27.8795934 38.176897,29.9545934 36.090897,30.4565934 C35.532897,30.5905934 34.876897,30.7285934 34.304897,30.6745934 C32.322897,30.4925934 31.431897,28.8375934 30.722897,27.1745934 C31.903897,27.7855934 32.629897,27.5165934 33.789897,27.2135934" id="Fill-331" fill="#B94546"></path>
            <path d="M38.281897,27.4935934 C38.281897,27.4935934 35.055897,31.8995934 31.832897,28.1825934 C31.832897,28.1825934 35.147897,29.2485934 38.281897,27.4935934" id="Fill-332" fill="#FFFFFE"></path>
            <path d="M30.769897,19.5275934 C30.261897,18.5935934 29.374897,17.9735934 28.320897,17.8705934 C25.704897,17.6125934 24.764897,21.2135934 25.361897,23.1645934 C25.406897,23.3135934 25.615897,23.3135934 25.661897,23.1645934 C26.188897,21.4515934 25.578897,18.8535934 28.068897,18.5405934 C29.106897,18.4095934 29.863897,19.2965934 30.298897,20.1125934 C30.679897,20.8325934 30.488897,21.7575934 30.921897,22.3965934 C30.981897,22.4835934 31.130897,22.5315934 31.208897,22.4345934 C31.820897,21.6615934 31.181897,20.2815934 30.769897,19.5275934" id="Fill-333" fill="#43271C"></path>
            <path d="M42.561897,18.5455934 C42.052897,17.6105934 41.164897,16.9905934 40.111897,16.8875934 C37.495897,16.6305934 36.555897,20.2275934 37.152897,22.1815934 C37.198897,22.3305934 37.407897,22.3305934 37.453897,22.1815934 C37.977897,20.4685934 37.369897,17.8705934 39.858897,17.5565934 C40.898897,17.4275934 41.653897,18.3145934 42.088897,19.1305934 C42.468897,19.8485934 42.277897,20.7745934 42.713897,21.4145934 C42.771897,21.5025934 42.922897,21.5495934 42.999897,21.4515934 C43.609897,20.6795934 42.972897,19.2975934 42.561897,18.5455934" id="Fill-334" fill="#43271C"></path>
            <path d="M45.933897,18.2895934 C45.933897,18.2895934 48.886897,13.8215934 50.002897,17.9225934 C50.890897,21.1855934 48.054897,23.7595934 46.198897,23.2315934 C44.347897,22.7065934 45.933897,18.2895934 45.933897,18.2895934" id="Fill-335" fill="#E8A489"></path>
            <path d="M45.936897,19.0615934 C45.936897,19.0615934 48.046897,16.2275934 48.678897,17.4835934 C49.313897,18.7345934 49.045897,20.2615934 49.045897,20.2615934 C49.045897,20.2615934 48.729897,18.5485934 47.404897,19.4165934 C47.404897,19.4165934 48.511897,22.1985934 46.035897,21.2405934 C46.035897,21.2405934 45.038897,20.3455934 45.936897,19.0615934" id="Fill-336" fill="#CA7A65"></path>
            <path d="M48.092897,22.7685934 C47.896897,22.4355934 47.487897,22.1755934 47.071897,22.0985934 C46.639897,21.7305934 46.047897,21.7205934 45.561897,21.9895934 C44.568897,22.5365934 44.386897,24.1675934 45.235897,24.8975934 C46.014897,25.5665934 47.318897,25.3805934 47.910897,24.5585934 C48.256897,24.0795934 48.406897,23.3065934 48.092897,22.7685934" id="Fill-337" fill="#AB482C"></path>
        </g>
    </g>
</svg>