<?xml version="1.0" encoding="UTF-8"?>
<svg width="124px" height="175px" viewBox="0 0 124 175" version="1.1" xmlns="http://www.w3.org/2000/svg" xmlns:xlink="http://www.w3.org/1999/xlink">
    <!-- Generator: Sketch 64 (93537) - https://sketch.com -->
    <title>jesse_graph</title>
    <desc>Created with Sketch.</desc>
    <g id="Page-2" stroke="none" stroke-width="1" fill="none" fill-rule="evenodd">
        <g id="jesse_graph" transform="translate(0.249029, 0.263407)">
            <polyline id="Fill-153" fill="#9FA5A8" points="72.0699708 174.404593 73.7509708 172.430593 83.5049708 161.417593 84.3249708 172.327593 84.4689708 174.404593 86.4889708 174.404593 86.3569708 172.430593 85.6279708 161.735593 95.3849708 172.327593 97.1679708 174.404593 100.232971 174.404593 98.2609708 172.119593 85.7919708 158.508593 85.7919708 129.207593 83.0899708 129.207593 83.0899708 158.743593 71.1199708 172.327593 69.3639708 174.404593 72.0699708 174.404593"></polyline>
            <polygon id="Fill-154" fill="#727777" points="83.7509708 139.736593 85.7509708 139.736593 85.7509708 106.736593 83.7509708 106.736593"></polygon>
            <polyline id="Fill-155" fill="#E0C49A" points="61.3879708 24.7605934 52.1389708 20.4965934 51.1569708 104.736593 65.4039708 104.736593 61.3879708 24.7605934"></polyline>
            <polygon id="Fill-156" fill="#EAD8BD" points="55.7509708 112.736593 116.750971 112.736593 116.750971 22.7365934 55.7509708 22.7365934"></polygon>
            <path d="M122.950971,21.9325934 C122.939971,21.8465934 122.928971,21.7605934 122.914971,21.6755934 C122.813971,21.0025934 122.208971,17.5355934 121.234971,17.5355934 L57.0709708,17.5355934 L57.0709708,29.0455934 C57.0709708,29.0455934 119.605971,29.0455934 119.686971,29.0455934 C120.353971,29.0455934 121.614971,27.3525934 121.943971,26.8675934 C122.938971,25.4135934 123.169971,23.6485934 122.950971,21.9325934" id="Fill-157" fill="#FFF7EC"></path>
            <path d="M61.5689708,23.3595934 C61.5689708,26.6445934 59.3169708,29.3085934 56.5419708,29.3085934 C53.7659708,29.3085934 51.5149708,26.6445934 51.5149708,23.3595934 C51.5149708,20.0705934 53.7659708,17.4055934 56.5419708,17.4055934 C59.3169708,17.4055934 61.5689708,20.0705934 61.5689708,23.3595934" id="Fill-158" fill="#E0C49A"></path>
            <polygon id="Fill-159" fill="#9FA5A8" points="52.7509708 114.736593 119.750971 114.736593 119.750971 112.736593 52.7509708 112.736593"></polygon>
            <polygon id="Fill-160" fill="#727777" points="52.7509708 114.736593 62.7509708 114.736593 62.7509708 112.736593 52.7509708 112.736593"></polygon>
            <polygon id="Fill-161" fill="#F3B428" points="62.7509708 89.7365934 68.7509708 89.7365934 68.7509708 44.7365934 62.7509708 44.7365934"></polygon>
            <polygon id="Fill-162" fill="#3EACAE" points="76.7509708 89.7365934 84.7509708 89.7365934 84.7509708 52.7365934 76.7509708 52.7365934"></polygon>
            <polygon id="Fill-163" fill="#205668" points="88.7509708 89.7365934 96.7509708 89.7365934 96.7509708 61.7365934 88.7509708 61.7365934"></polygon>
            <polygon id="Fill-164" fill="#60402B" points="101.750971 89.7365934 108.750971 89.7365934 108.750971 56.7365934 101.750971 56.7365934"></polygon>
            <polygon id="Fill-166" fill="#9D9E9A" points="74.7509708 36.7365934 106.750971 36.7365934 106.750971 34.7365934 74.7509708 34.7365934"></polygon>
            <polygon id="Fill-167" fill="#9D9E9A" points="83.7509708 41.7365934 106.750971 41.7365934 106.750971 38.7365934 83.7509708 38.7365934"></polygon>
            <polygon id="Fill-168" fill="#9D9E9A" points="86.7509708 44.7365934 106.750971 44.7365934 106.750971 42.7365934 86.7509708 42.7365934"></polygon>
            <polygon id="Fill-169" fill="#9D9E9A" points="64.7509708 98.7365934 106.750971 98.7365934 106.750971 97.7365934 64.7509708 97.7365934"></polygon>
            <polygon id="Fill-170" fill="#9D9E9A" points="73.7509708 101.736593 101.750971 101.736593 101.750971 100.736593 73.7509708 100.736593"></polygon>
            <polygon id="Fill-171" fill="#9D9E9A" points="64.7509708 105.736593 104.750971 105.736593 104.750971 104.736593 64.7509708 104.736593"></polygon>
            <path d="M44.0869708,34.6095934 C43.1519708,31.3865934 40.8069708,28.8955934 39.4249708,25.8645934 C38.0859708,22.9275934 37.7069708,19.7665934 37.0259708,16.6315934 C35.8859708,11.3785934 33.1919708,5.22559345 27.0049708,5.19259345 L14.5459708,6.09159345 C14.0799708,12.9025934 11.1429708,18.2475934 7.2249708,23.6565934 C3.6169708,28.6385934 0.106970802,34.1765934 4.2359708,39.9995934 C7.4159708,44.4835934 12.5459708,45.0625934 17.3729708,43.4345934 C21.2439708,42.1295934 25.0939708,39.6865934 28.9349708,42.1915934 C31.8199708,44.0705934 34.6789708,46.5315934 38.3109708,46.6775934 C44.3519708,46.9235934 45.3689708,39.0285934 44.0869708,34.6095934" id="Fill-172" fill="#F4DDB4"></path>
            <path d="M64.4759708,76.9715934 C64.4759708,76.9715934 66.7439708,77.7745934 67.5819708,76.9535934 C67.5819708,76.9535934 65.2739708,73.1495934 64.4759708,76.9715934" id="Fill-173" fill="#ECA98E"></path>
            <path d="M62.6059708,73.6975934 L61.4019708,73.4565934 C48.4359708,70.8395934 38.7189708,41.6125934 38.7189708,41.6125934 C35.5469708,40.9085934 33.8829708,49.2715934 33.8829708,49.2715934 C39.5999708,63.9125934 53.2359708,79.4345934 60.6889708,80.4905934 C61.5929708,78.3305934 62.4889708,75.9475934 62.6059708,73.6975934" id="Fill-174" fill="#88CFE8"></path>
            <path d="M57.8219708,88.7295934 C57.6219708,89.0455934 57.2089708,89.1405934 56.9009708,88.9435934 L43.4409708,80.3365934 C43.1329708,80.1385934 43.0449708,79.7245934 43.2459708,79.4105934 L54.6969708,61.5015934 C54.8979708,61.1857189 55.3129708,61.0915934 55.6199708,61.2885934 L69.0809708,69.8935934 C69.3899708,70.0905934 69.4749708,70.5075934 69.2739708,70.8235934 L57.8219708,88.7295934" id="Fill-175" fill="#A1402B"></path>
            <polyline id="Fill-176" fill="#F6ECD2" points="55.9589708 63.1215934 46.3389708 79.4975934 56.8879708 86.7925934 67.1949708 69.7855934 55.9589708 63.1215934"></polyline>
            <polyline id="Fill-177" fill="#FFFFFE" points="45.8789708 78.5145934 56.6859708 62.8285934 67.2719708 70.4655934 57.7189708 86.5255934 45.8789708 78.5145934"></polyline>
            <path d="M66.0299708,70.2905934 L57.0009708,64.5185934 C57.2899708,64.1825934 57.4189708,64.1605934 57.6269708,64.0785934 C58.5679708,63.7035934 59.8329708,64.0475934 61.2119708,64.7765934 C61.6779708,65.0245934 62.1719708,65.2915934 62.6639708,65.6075934 C63.1459708,65.9165934 63.6089708,66.2145934 64.0209708,66.5305934 C65.2749708,67.4805934 66.1039708,68.5275934 66.1599708,69.5415934 C66.1719708,69.7655934 66.2129708,69.8865934 66.0299708,70.2905934" id="Fill-178" fill="#898E8D"></path>
            <path d="M63.9529708,63.6175934 C64.2719708,63.8235934 64.3469708,64.2805934 64.1159708,64.6405934 C63.8869708,65.0005934 63.4419708,65.1245934 63.1199708,64.9185934 C62.7989708,64.7125934 62.7239708,64.2555934 62.9549708,63.8965934 C63.1859708,63.5355934 63.6309708,63.4135934 63.9529708,63.6175934 Z M65.2509708,64.3225934 C64.8459708,64.0635934 64.7289708,63.4545934 64.9019708,63.0465934 L64.0599708,62.5075934 C63.7609708,62.8375934 63.1939708,63.0075934 62.7879708,62.7485934 C62.7329708,62.7135934 62.7329708,62.6815934 62.6579708,62.6175934 L60.1549708,66.5335934 L62.9709708,68.3355934 L65.4779708,64.4145934 C65.4689708,64.4275934 65.3109708,64.3625934 65.2509708,64.3225934 L65.2509708,64.3225934 Z" id="Fill-179" fill="#898E8D"></path>
            <path d="M65.6239708,79.0405934 C65.1479708,77.5815934 61.8649708,75.9245934 62.7539708,78.1915934 C62.9329708,78.6445934 63.5309708,79.3025934 64.0719708,79.6945934 C63.9899708,79.6305934 63.8949708,79.5665934 63.7919708,79.5075934 C62.4429708,78.3865934 60.6989708,78.6165934 62.0729708,80.5395934 C61.2219708,80.4455934 60.5229708,81.0405934 61.2879708,82.1745934 C62.2509708,83.6095934 63.5109708,82.7295934 63.5139708,81.6435934 C64.5519708,81.8135934 65.1569708,80.5495934 64.0739708,79.6975934 C64.2699708,79.8385934 64.4559708,79.9435934 64.6149708,79.9945934 C65.7309708,80.3505934 66.1509708,79.6465934 65.6239708,79.0405934" id="Fill-180" fill="#ECA98E"></path>
            <path d="M34.8749708,165.177593 C33.5979708,163.878593 31.0179708,163.929593 30.3289708,165.881593 C30.0899708,166.502593 28.9689708,168.359593 30.0279708,173.501593 L30.9389708,173.501593 L30.9389708,171.014593 L30.9589708,170.745593 C31.0909708,171.224593 31.2669708,171.736593 31.4439708,172.290593 C32.2199708,174.730593 37.3189708,174.808593 38.6889708,173.779593 C39.0659708,173.498593 38.2219708,172.851593 37.4799708,171.189593 C36.5429708,169.090593 35.5439708,165.863593 34.8749708,165.177593" id="Fill-181" fill="#AB482C"></path>
            <path d="M35.6179708,167.412593 C35.1309708,165.869593 35.0009708,165.500593 34.4909708,163.329593 C34.7759708,157.863593 35.7189708,111.478593 33.7039708,106.039593 L26.1529708,107.850593 L31.2469708,162.189593 C31.1429708,163.567593 31.0789708,165.232593 31.2569708,166.529593 C31.5859708,168.912593 34.7009708,171.852593 35.9389708,171.561593 C36.7049708,171.381593 36.1059708,168.955593 35.6179708,167.412593" id="Fill-182" fill="#E8A489"></path>
            <path d="M24.4249708,165.086593 C23.1389708,162.045593 20.6509708,166.712593 20.6509708,166.712593 C20.1029708,167.388593 19.4559708,168.588593 17.7819708,169.796593 C15.1049708,171.729593 11.4409708,173.757593 13.6839708,174.201593 C15.2089708,174.501593 17.6309708,174.549593 19.4159708,173.781593 C21.8979708,172.715593 23.5599708,170.653593 23.5599708,170.653593 L23.2429708,173.644593 L24.2489708,173.527593 C24.2489708,173.527593 26.2869708,169.488593 24.4249708,165.086593" id="Fill-183" fill="#AB482C"></path>
            <path d="M19.7079708,105.868593 C17.9819708,111.092593 20.2179708,152.805593 20.8589708,161.691593 C20.7829708,163.528593 20.5679708,165.308593 19.5269708,166.906593 C18.5599708,168.391593 17.1839708,170.331593 15.9309708,171.565593 C18.0779708,172.129593 19.6539708,171.067593 20.9269708,170.108593 C22.3669708,169.018593 23.2509708,167.556593 23.7339708,165.924593 C23.9809708,165.089593 24.1259708,164.205593 24.1829708,163.307593 L27.4789708,108.037593 L19.7079708,105.868593" id="Fill-184" fill="#E8A489"></path>
            <path d="M26.2739708,27.2905934 C28.0149708,27.1315934 29.6299708,26.5005934 31.1479708,25.6415934 C31.9279708,25.8085934 32.7619708,25.8745934 32.9779708,25.8435934 C36.2639708,25.4055934 38.6129708,22.4295934 39.6499708,19.2165934 C41.8469708,12.4015934 37.8549708,3.66759345 32.0139708,1.08359345 C28.3989708,-0.51540655 23.4669708,-0.20040655 19.6449708,1.09059345 C15.3819708,2.52959345 11.6889708,7.49259345 10.9499708,12.1295934 C8.6379708,26.6415934 18.3199708,28.0275934 26.2739708,27.2905934" id="Fill-185" fill="#F4DDB4"></path>
            <path d="M1.7539708,92.6605934 C1.7439708,92.6915934 1.7329708,92.7225934 1.7229708,92.7535934 C1.5319708,93.3645934 1.3429708,94.0235934 1.2559708,94.6795934 C1.2539708,94.6725934 1.2539708,94.6665934 1.2519708,94.6565934 C1.1949708,93.8955934 1.4459708,93.2735934 1.7539708,92.6605934 Z M1.6239708,98.2535934 C1.8509708,98.4925934 2.1879708,98.2745934 2.0999708,97.9695934 C2.0539708,97.8095934 2.0049708,97.6525934 1.9559708,97.4925934 C2.0269708,97.5725934 2.1039708,97.6505934 2.1879708,97.7235934 C2.3009708,98.0345934 2.4649708,98.3165934 2.7009708,98.5515934 C2.8039708,98.6515934 3.0279708,98.6415934 3.0349708,98.4575934 C3.1029708,96.6285934 3.3619708,95.0515934 4.0329708,93.3265934 C4.2099708,92.8685934 4.3609708,92.4285934 4.4849708,91.9975934 C4.7499708,93.1205934 4.8539708,94.2615934 5.0919708,95.3905934 C5.1379708,95.6065934 5.4459708,95.6665934 5.5339708,95.4445934 C6.2909708,93.5445934 5.4289708,91.1435934 5.1139708,89.2285934 C4.9989708,88.5275934 5.0559708,87.8225934 5.0849708,87.1125934 C5.0889708,86.9745934 5.0899708,86.8275934 5.0909708,86.6775934 C5.4289708,85.8515934 5.5569708,84.9185934 5.5429708,84.0615934 C5.5399708,83.8325934 5.3079708,83.6895934 5.1119708,83.6435934 C3.5129708,83.2835934 2.7989708,85.2615934 2.4679708,86.4535934 C2.1729708,87.5175934 1.9779708,88.6015934 1.7789708,89.6855934 C1.3489708,90.6385934 0.896970802,91.5605934 0.415970802,92.4965934 C-0.529029198,94.3335934 0.247970802,96.8105934 1.6239708,98.2535934 L1.6239708,98.2535934 Z" id="Fill-186" fill="#E8A489"></path>
            <path d="M11.9889708,41.6814093 C11.9889708,41.6814093 2.7119708,52.0375934 1.3009708,89.3435934 L5.7369708,89.5465934 C5.7369708,89.5465934 14.7139708,55.0545934 14.8129708,54.4565934 C15.3939708,50.9805934 14.2029708,41.6335934 11.9889708,41.6814093" id="Fill-187" fill="#88CFE8"></path>
            <path d="M38.9139708,41.4805934 L31.1019708,73.8495934 C31.1019708,73.8495934 29.8299708,75.0635934 26.6199708,75.3205934 C23.4079708,75.5775934 20.3639708,74.4445934 20.3639708,74.4445934 C20.0589708,73.2345934 12.0239708,41.4805934 12.0239708,41.4805934 C12.0239708,41.4805934 15.2649708,40.5235934 19.7859708,39.8875934 C23.1549708,39.4125934 27.2379708,39.1145934 31.2199708,39.5215934 C33.9149708,39.7985934 36.5619708,40.3945934 38.9139708,41.4805934" id="Fill-188" fill="#88CFE8"></path>
            <path d="M17.6689708,57.8215934 C17.6689708,57.8215934 29.9989708,59.0975934 33.3989708,56.5475934 C33.3989708,56.5475934 29.1479708,66.7535934 17.6689708,57.8215934" id="Fill-189" fill="#6BACBE"></path>
            <path d="M39.3159708,125.092593 C39.6139708,107.148593 38.5099708,82.8505934 31.1019708,73.8495934 C31.1019708,73.8495934 29.9069708,76.3935934 20.3639708,74.4445934 C20.3639708,74.4445934 10.6129708,79.0875934 13.9129708,126.343593 C22.4009708,126.715593 30.9019708,126.231593 39.3159708,125.092593" id="Fill-190" fill="#1E5264"></path>
            <path d="M31.2199708,39.5215934 C29.7659708,44.5085934 27.4449708,51.8395934 26.1049708,52.8435934 C24.3959708,54.1255934 20.9089708,43.4985934 19.7859708,39.8875934 C23.1549708,39.4125934 27.2379708,39.1145934 31.2199708,39.5215934" id="Fill-191" fill="#F8F2E9"></path>
            <path d="M26.0459708,42.2915934 C24.4859708,42.2915934 22.0509708,41.8185934 22.0509708,40.2555934 L22.8049708,30.4925934 C22.8049708,28.9285934 24.0699708,27.6645934 25.6329708,27.6645934 C26.4129708,27.6645934 27.1189708,27.9815934 27.6319708,28.4935934 C28.1429708,29.0035934 28.4599708,29.7105934 28.4599708,30.4925934 L29.1379708,39.4265934 C29.5899708,42.0665934 26.0459708,42.2915934 26.0459708,42.2915934" id="Fill-192" fill="#CA7A65"></path>
            <path d="M14.1969708,19.9925934 C14.1969708,19.9925934 10.8269708,15.8265934 10.1109708,20.0165934 C9.5409708,23.3525934 12.6119708,25.6375934 14.4059708,24.9335934 C16.2019708,24.2345934 14.1969708,19.9925934 14.1969708,19.9925934" id="Fill-193" fill="#E8A489"></path>
            <path d="M14.2679708,20.7575934 C14.2679708,20.7575934 11.8969708,18.1445934 11.3879708,19.4535934 C10.8749708,20.7605934 11.2879708,22.2535934 11.2879708,22.2535934 C11.2879708,22.2535934 11.4389708,20.5185934 12.8409708,21.2525934 C12.8409708,21.2525934 12.0069708,24.1325934 14.3799708,22.9385934 C14.3799708,22.9385934 15.2839708,21.9505934 14.2679708,20.7575934" id="Fill-194" fill="#CA7A65"></path>
            <path d="M15.5849708,24.8955934 C15.3899708,24.5625934 14.9809708,24.3025934 14.5649708,24.2235934 C14.1329708,23.8575934 13.5409708,23.8475934 13.0549708,24.1155934 C12.0629708,24.6645934 11.8789708,26.2945934 12.7309708,27.0265934 C13.5079708,27.6935934 14.8129708,27.5075934 15.4039708,26.6855934 C15.7499708,26.2065934 15.8999708,25.4335934 15.5849708,24.8955934" id="Fill-195" fill="#AB482C"></path>
            <path d="M37.1889708,19.5185934 C37.1889708,19.5185934 40.1409708,15.0495934 41.2569708,19.1485934 C42.1469708,22.4145934 39.3099708,24.9885934 37.4549708,24.4605934 C35.6019708,23.9345934 37.1889708,19.5185934 37.1889708,19.5185934" id="Fill-196" fill="#E8A489"></path>
            <path d="M37.1919708,20.2895934 C37.1919708,20.2895934 39.2989708,17.4555934 39.9319708,18.7125934 C40.5689708,19.9635934 40.3009708,21.4895934 40.3009708,21.4895934 C40.3009708,21.4895934 39.9849708,19.7775934 38.6589708,20.6435934 C38.6589708,20.6435934 39.7659708,23.4265934 37.2899708,22.4695934 C37.2899708,22.4695934 36.2939708,21.5735934 37.1919708,20.2895934" id="Fill-197" fill="#CA7A65"></path>
            <path d="M39.3459708,23.9965934 C39.1509708,23.6625934 38.7429708,23.4035934 38.3269708,23.3265934 C37.8939708,22.9585934 37.3019708,22.9485934 36.8159708,23.2165934 C35.8239708,23.7655934 35.6409708,25.3945934 36.4919708,26.1265934 C37.2699708,26.7955934 38.5739708,26.6075934 39.1659708,25.7865934 C39.5099708,25.3075934 39.6609708,24.5345934 39.3459708,23.9965934" id="Fill-198" fill="#AB482C"></path>
            <path d="M37.1469708,20.9815934 C36.8479708,14.7735934 35.0089708,8.49359345 30.4809708,5.86259345 C28.1039708,8.14959345 24.7319708,9.33959345 21.7679708,10.6165934 C19.0509708,11.7845934 16.2709708,13.0785934 14.4719708,15.2565934 C14.1009708,17.4415934 14.0139708,19.7815934 14.1259708,22.0935934 C14.5269708,30.4335934 20.8959708,35.0645934 27.6519708,34.5915934 C33.9999708,34.1485934 37.5509708,29.3225934 37.1469708,20.9815934" id="Fill-199" fill="#E8A489"></path>
            <path d="M28.8769708,19.8405934 C28.8769708,21.5135934 30.2369708,22.8705934 31.9059708,22.8705934 C33.5809708,22.8705934 34.9369708,21.5135934 34.9369708,19.8405934 C34.9369708,18.1705934 33.5809708,16.8135934 31.9059708,16.8135934 C30.2369708,16.8135934 28.8769708,18.1705934 28.8769708,19.8405934" id="Fill-200" fill="#FFFFFE"></path>
            <path d="M33.6379708,19.6555934 C33.6379708,21.0355934 32.7399708,22.1535934 31.6329708,22.1535934 C30.5259708,22.1535934 29.6309708,21.0355934 29.6309708,19.6555934 C29.6309708,18.2725934 30.5259708,17.1505934 31.6329708,17.1505934 C32.7399708,17.1505934 33.6379708,18.2725934 33.6379708,19.6555934" id="Fill-201" fill="#5A7192"></path>
            <path d="M33.0569708,19.6555934 C33.0569708,20.6325934 32.4199708,21.4305934 31.6329708,21.4305934 C30.8479708,21.4305934 30.2109708,20.6325934 30.2109708,19.6555934 C30.2109708,18.6705934 30.8479708,17.8735934 31.6329708,17.8735934 C32.4199708,17.8735934 33.0569708,18.6705934 33.0569708,19.6555934" id="Fill-202" fill="#291413"></path>
            <path d="M33.1469708,17.9695934 C33.1469708,18.2375934 32.8169708,18.4525934 32.4139708,18.4525934 C32.0079708,18.4525934 31.6809708,18.2375934 31.6809708,17.9695934 C31.6809708,17.7015934 32.0079708,17.4845934 32.4139708,17.4845934 C32.8169708,17.4845934 33.1469708,17.7015934 33.1469708,17.9695934" id="Fill-203" fill="#FFFFFE"></path>
            <path d="M31.8369708,16.3725934 C33.8359708,16.1735934 35.3799708,17.9815934 35.3799708,19.8485934 C35.3799708,20.0425934 35.1399708,20.0785934 35.0379708,19.9405934 C34.2189708,18.8165934 33.9589708,17.7165934 32.4629708,17.2835934 C30.2589708,16.6515934 29.0529708,18.9105934 28.9289708,20.6875934 C28.9149708,20.8595934 28.6779708,20.8575934 28.6629708,20.6875934 C28.4639708,18.5645934 29.6009708,16.5955934 31.8369708,16.3725934" id="Fill-204" fill="#251413"></path>
            <path d="M24.8819708,24.9845934 C24.8819708,24.9845934 26.3789708,27.5155934 27.9989708,24.9335934 L24.8819708,24.9845934" id="Fill-205" fill="#CA7A65"></path>
            <path d="M23.3339708,19.8405934 C23.3339708,21.5155934 21.9779708,22.8725934 20.3039708,22.8725934 C18.6319708,22.8725934 17.2749708,21.5155934 17.2749708,19.8405934 C17.2749708,18.1705934 18.6319708,16.8135934 20.3039708,16.8135934 C21.9779708,16.8135934 23.3339708,18.1705934 23.3339708,19.8405934" id="Fill-206" fill="#FFFFFE"></path>
            <path d="M22.1979708,19.6555934 C22.1979708,21.0355934 21.3509708,22.1535934 20.3039708,22.1535934 C19.2589708,22.1535934 18.4119708,21.0355934 18.4119708,19.6555934 C18.4119708,18.2725934 19.2589708,17.1535934 20.3039708,17.1535934 C21.3509708,17.1535934 22.1979708,18.2725934 22.1979708,19.6555934" id="Fill-207" fill="#5A7192"></path>
            <path d="M21.6489708,19.6555934 C21.6489708,20.6345934 21.0469708,21.4295934 20.3039708,21.4295934 C19.5599708,21.4295934 18.9579708,20.6345934 18.9579708,19.6555934 C18.9579708,18.6705934 19.5599708,17.8735934 20.3039708,17.8735934 C21.0469708,17.8735934 21.6489708,18.6705934 21.6489708,19.6555934" id="Fill-208" fill="#291413"></path>
            <path d="M21.7349708,17.9725934 C21.7349708,18.2375934 21.4239708,18.4535934 21.0409708,18.4535934 C20.6579708,18.4535934 20.3459708,18.2375934 20.3459708,17.9725934 C20.3459708,17.7015934 20.6579708,17.4845934 21.0409708,17.4845934 C21.4239708,17.4845934 21.7349708,17.7015934 21.7349708,17.9725934" id="Fill-209" fill="#FFFFFE"></path>
            <path d="M20.2659708,16.3725934 C18.2649708,16.1745934 16.7219708,17.9815934 16.7219708,19.8485934 C16.7219708,20.0425934 16.9619708,20.0785934 17.0629708,19.9405934 C17.8809708,18.8175934 18.1419708,17.7165934 19.6379708,17.2835934 C21.8419708,16.6525934 23.0469708,18.9105934 23.1749708,20.6885934 C23.1849708,20.8595934 23.4229708,20.8575934 23.4389708,20.6885934 C23.6369708,18.5645934 22.4989708,16.5955934 20.2659708,16.3725934" id="Fill-210" fill="#251413"></path>
            <path d="M22.8709708,24.6605934 C22.8709708,26.0325934 21.4459708,27.1485934 19.6869708,27.1485934 C17.9299708,27.1485934 16.5019708,26.0325934 16.5019708,24.6605934 C16.5019708,23.2895934 17.9299708,22.1735934 19.6869708,22.1735934 C21.4459708,22.1735934 22.8709708,23.2895934 22.8709708,24.6605934" id="Fill-211" fill="#E37F6B"></path>
            <path d="M35.4569708,24.6605934 C35.4569708,26.0325934 34.0339708,27.1485934 32.2739708,27.1485934 C30.5179708,27.1485934 29.0909708,26.0325934 29.0909708,24.6605934 C29.0909708,23.2895934 30.5179708,22.1735934 32.2739708,22.1735934 C34.0339708,22.1735934 35.4569708,23.2895934 35.4569708,24.6605934" id="Fill-212" fill="#E37F6B"></path>
            <path d="M23.3589708,14.1915934 C22.8359708,13.8315934 22.0029708,13.7915934 21.3879708,13.6985934 C20.6649708,13.5855934 19.9529708,13.6295934 19.2519708,13.8365934 C17.8499708,14.2525934 17.1889708,15.2625934 16.5259708,16.4705934 C16.4529708,16.6015934 16.6329708,16.7525934 16.7399708,16.6345934 C17.5479708,15.7575934 18.4969708,14.8955934 19.6679708,14.5875934 C20.3879708,14.3985934 21.1109708,14.5005934 21.8289708,14.6405934 C22.3309708,14.7385934 22.8959708,14.8825934 23.3589708,14.6045934 C23.5199708,14.5065934 23.5029708,14.2935934 23.3589708,14.1915934" id="Fill-213" fill="#F4DDB4"></path>
            <path d="M29.7259708,14.1915934 C30.2459708,13.8315934 31.0799708,13.7915934 31.6949708,13.6985934 C32.4179708,13.5855934 33.1299708,13.6295934 33.8309708,13.8365934 C35.2339708,14.2525934 35.8929708,15.2625934 36.5569708,16.4705934 C36.6299708,16.6015934 36.4499708,16.7525934 36.3419708,16.6345934 C35.5349708,15.7575934 34.5869708,14.8955934 33.4139708,14.5875934 C32.6949708,14.3985934 31.9719708,14.5005934 31.2549708,14.6405934 C30.7519708,14.7385934 30.1879708,14.8825934 29.7259708,14.6045934 C29.5639708,14.5065934 29.5789708,14.2935934 29.7259708,14.1915934" id="Fill-214" fill="#F4DDB4"></path>
            <path d="M27.2189708,26.6805934 C26.7699708,26.7795934 26.4719708,27.0895934 26.4339708,27.5535934 C25.9349708,27.3655934 25.8329708,26.7995934 25.3559708,26.6205934 C24.8739708,26.4405934 24.4209708,26.7525934 23.9599708,26.8965934 C23.1499708,27.1535934 22.0189708,26.8935934 21.6529708,26.1285934 C22.4369708,27.7655934 23.0849708,29.7935934 25.2069708,30.1095934 C25.7729708,30.1945934 26.4389708,30.2765934 27.0049708,30.1745934 C28.9629708,29.8215934 29.7079708,28.0925934 30.2699708,26.3755934 C29.1469708,27.0875934 28.3999708,26.8825934 27.2189708,26.6805934" id="Fill-215" fill="#B94546"></path>
            <path d="M22.7669708,27.3485934 C22.7669708,27.3485934 26.3619708,31.4575934 29.2519708,27.4775934 C29.2519708,27.4775934 26.0409708,28.8265934 22.7669708,27.3485934" id="Fill-216" fill="#FFFFFE"></path>
        </g>
        <path d="M123.279,55.13 L139.348,56.279 C139.348,56.279 140.87,49.33 144.692,46.623 C144.959,46.434 145.239,46.319 145.526,46.279 C136.45,45.665 128.09,44.992 126.507,45.969 C124.172,47.413 123.279,55.13 123.279,55.13" id="Fill-322" fill="#EAD8BD"></path>
    </g>
</svg>