<?xml version="1.0" encoding="UTF-8"?>
<svg width="104px" height="349px" viewBox="0 0 104 349" version="1.1" xmlns="http://www.w3.org/2000/svg" xmlns:xlink="http://www.w3.org/1999/xlink">
    <!-- Generator: Sketch 64 (93537) - https://sketch.com -->
    <title>mad_face</title>
    <desc>Created with Sketch.</desc>
    <g id="Page-2" stroke="none" stroke-width="1" fill="none" fill-rule="evenodd">
        <g id="mad_face" transform="translate(0.600450, 0.510000)">
            <path d="M80.9625501,10.282 C80.9625501,10.282 89.9575501,8.996 90.8125501,0 C90.8125501,0 92.0995501,9.639 100.23855,9.426 C99.8095501,10.068 91.4545501,10.495 91.0275501,18.847 C91.0275501,18.847 91.2415501,9.638 80.9625501,10.282" id="Fill-3" fill="#FFFFFE"></path>
            <path d="M93.3875501,25.551 C93.3875501,25.551 97.7825501,24.922 98.2005501,20.525 C98.2005501,20.525 98.8295501,25.236 102.80555,25.132 C102.59555,25.445 98.5145501,25.655 98.3055501,29.736 C98.3055501,29.736 98.4115501,25.236 93.3875501,25.551" id="Fill-4" fill="#FFFFFE"></path>
            <path d="M77.3465501,30.45 C77.3465501,30.45 80.7205501,29.968 81.0425501,26.594 C81.0425501,26.594 81.5235501,30.21 84.5755501,30.13 C84.4145501,30.369 81.2815501,30.532 81.1205501,33.663 C81.1205501,33.663 81.2005501,30.21 77.3465501,30.45" id="Fill-5" fill="#FFFFFE"></path>
            <path d="M84.3175501,80.533 C82.5305501,74.368 78.0455501,69.605 75.4015501,63.809 C72.8405501,58.192 72.1175501,52.147 70.8155501,46.15 C68.6345501,36.104 63.4815501,24.336 51.6485501,24.274 L27.8205501,25.993 C26.9275501,39.019 21.3115501,49.239 13.8195501,59.585 C6.91855009,69.114 0.204550092,79.706 8.10255009,90.843 C14.1845501,99.419 23.9955501,100.528 33.2255501,97.414 C40.6315501,94.915 47.9945501,90.242 55.3395501,95.031 C60.8575501,98.628 66.3245501,103.334 73.2715501,103.615 C84.8245501,104.083 86.7685501,88.986 84.3175501,80.533" id="Fill-6" fill="#F4DDB4"></path>
            <path d="M66.6985501,330.252 C64.2575501,327.763 59.3225501,327.861 58.0045501,331.594 C57.5465501,332.778 55.4045501,336.335 57.4315501,346.17 L59.1725501,346.17 L59.1725501,341.41 L59.2115501,340.892 C59.4625501,341.811 59.7995501,342.792 60.1375501,343.852 C61.6205501,348.518 71.3735501,348.666 73.9965501,346.698 C74.7155501,346.16 73.1005501,344.924 71.6805501,341.745 C69.8905501,337.729 67.9805501,331.555 66.6985501,330.252" id="Fill-7" fill="#AB482C"></path>
            <path d="M68.1225501,334.521 C67.1905501,331.573 66.9395501,330.862 65.9655501,326.713 C66.5105501,316.261 68.3145501,227.549 64.4595501,217.148 L50.0185501,220.607 L59.7605501,324.534 C59.5625501,327.166 59.4405501,330.35 59.7815501,332.833 C60.4115501,337.389 66.3655501,343.013 68.7325501,342.456 C70.1985501,342.11 69.0555501,337.472 68.1225501,334.521" id="Fill-8" fill="#E8A489"></path>
            <path d="M46.7135501,330.072 C44.2535501,324.257 39.4975501,333.181 39.4975501,333.181 C38.4495501,334.477 37.2115501,336.77 34.0095501,339.081 C28.8915501,342.78 21.8815501,346.656 26.1725501,347.504 C29.0865501,348.08 33.7205501,348.173 37.1355501,346.702 C41.8815501,344.662 45.0595501,340.719 45.0595501,340.719 L44.4545501,346.442 L46.3785501,346.217 C46.3785501,346.217 50.2745501,338.491 46.7135501,330.072" id="Fill-9" fill="#AB482C"></path>
            <path d="M37.6915501,216.817 C34.3935501,226.81 38.6675501,306.586 39.8955501,323.581 C39.7485501,327.094 39.3395501,330.499 37.3465501,333.553 C35.4975501,336.393 32.8645501,340.103 30.4675501,342.468 C34.5755501,343.54 37.5885501,341.513 40.0245501,339.676 C42.7795501,337.593 44.4665501,334.798 45.3925501,331.678 C45.8675501,330.077 46.1415501,328.388 46.2515501,326.67 L52.5545501,220.965 L37.6915501,216.817" id="Fill-10" fill="#E8A489"></path>
            <path d="M50.2505501,66.537 C53.5805501,66.229 56.6685501,65.023 59.5705501,63.384 C61.0645501,63.704 62.6575501,63.823 63.0715501,63.769 C69.3575501,62.93 73.8495501,57.239 75.8305501,51.095 C80.0345501,38.061 72.4005501,21.356 61.2285501,16.413 C54.3155501,13.355 44.8835501,13.958 37.5715501,16.427 C29.4195501,19.18 22.3555501,28.671 20.9425501,37.538 C16.5215501,65.296 35.0385501,67.945 50.2505501,66.537" id="Fill-11" fill="#F4DDB4"></path>
            <path d="M94.3935501,194.616 C94.3915501,194.631 94.3895501,194.644 94.3875501,194.659 C94.2185501,193.403 93.8565501,192.14 93.4915501,190.974 C93.4735501,190.914 93.4525501,190.856 93.4335501,190.795 C94.0235501,191.97 94.5015501,193.159 94.3935501,194.616 Z M95.9935501,190.482 C95.0725501,188.693 94.2075501,186.93 93.3835501,185.108 C93.0055501,183.034 92.6305501,180.96 92.0665501,178.925 C91.4345501,176.645 90.0695501,172.863 87.0075501,173.555 C86.6365501,173.639 86.1935501,173.912 86.1865501,174.353 C86.1595501,175.989 86.4055501,177.772 87.0495501,179.355 C87.0525501,179.642 87.0535501,179.925 87.0645501,180.185 C87.1165501,181.541 87.2275501,182.889 87.0055501,184.232 C86.4045501,187.895 84.7555501,192.488 86.2035501,196.121 C86.3725501,196.546 86.9595501,196.428 87.0455501,196.017 C87.5045501,193.859 87.7055501,191.678 88.2105501,189.528 C88.4455501,190.354 88.7355501,191.192 89.0755501,192.069 C90.3585501,195.372 90.8535501,198.385 90.9815501,201.886 C90.9955501,202.237 91.4255501,202.257 91.6215501,202.064 C92.0725501,201.615 92.3865501,201.075 92.6035501,200.48 C92.7645501,200.34 92.9095501,200.189 93.0485501,200.038 C92.9535501,200.342 92.8595501,200.643 92.7725501,200.951 C92.6025501,201.534 93.2485501,201.949 93.6835501,201.492 C96.3155501,198.732 97.7995501,193.994 95.9935501,190.482 L95.9935501,190.482 Z" id="Fill-12" fill="#E8A489"></path>
            <path d="M73.8575501,93.298 C73.8575501,93.298 91.5995501,113.102 94.2985501,184.455 L85.8155501,184.84 C85.8155501,184.84 67.8515501,116.045 67.8515501,114.886 C67.8515501,113.728 69.6155501,95.867 73.8575501,93.298" id="Fill-13" fill="#88CFE8"></path>
            <path d="M3.35455009,191.555 C3.33655009,191.617 3.31455009,191.676 3.29555009,191.735 C2.93155009,192.901 2.56755009,194.163 2.40055009,195.419 C2.39855009,195.405 2.39755009,195.39 2.39555009,195.377 C2.28655009,193.92 2.76655009,192.731 3.35455009,191.555 Z M3.10555009,202.255 C3.54055009,202.71 4.18655009,202.297 4.01755009,201.711 C3.92955009,201.406 3.83555009,201.103 3.74055009,200.799 C3.87855009,200.951 4.02355009,201.099 4.18555009,201.239 C4.40155009,201.836 4.71555009,202.375 5.16755009,202.825 C5.36255009,203.016 5.79355009,202.998 5.80555009,202.645 C5.93555009,199.145 6.42955009,196.132 7.71255009,192.829 C8.05355009,191.954 8.34355009,191.116 8.57855009,190.289 C9.08355009,192.438 9.28355009,194.62 9.74255009,196.779 C9.82955009,197.189 10.4165501,197.306 10.5855501,196.882 C12.0325501,193.248 10.3845501,188.655 9.78255009,184.994 C9.56155009,183.649 9.67155009,182.303 9.72455009,180.946 C9.73455009,180.685 9.73655009,180.403 9.73955009,180.116 C10.3825501,178.534 10.6285501,176.75 10.6025501,175.116 C10.5945501,174.674 10.1525501,174.4 9.78055009,174.315 C6.71955009,173.623 5.35555009,177.406 4.72255009,179.685 C4.15755009,181.719 3.78355009,183.794 3.40455009,185.869 C2.58055009,187.69 1.71455009,189.453 0.795550092,191.242 C-1.01144991,194.755 0.473550092,199.492 3.10555009,202.255 L3.10555009,202.255 Z" id="Fill-14" fill="#E8A489"></path>
            <path d="M22.9305501,94.0586614 C22.9305501,94.0586614 5.18955009,113.863 2.48955009,185.216 L10.9735501,185.601 C10.9735501,185.601 28.1395501,119.634 28.3315501,118.489 C29.4415501,111.843 27.1645501,93.969 22.9305501,94.0586614" id="Fill-15" fill="#88CFE8"></path>
            <path d="M74.4245501,93.675 L59.4835501,155.579 C59.4835501,155.579 57.0525501,157.903 50.9115501,158.393 C44.7705501,158.885 38.9485501,156.719 38.9485501,156.719 C38.3645501,154.406 22.9965501,93.675 22.9965501,93.675 C22.9965501,93.675 29.1945501,91.845 37.8405501,90.629 C44.2865501,89.718 52.0955501,89.148 59.7105501,89.929 C64.8635501,90.455 69.9265501,91.599 74.4245501,93.675" id="Fill-16" fill="#88CFE8"></path>
            <path d="M33.7945501,124.928 C33.7945501,124.928 57.3735501,127.368 63.8785501,122.49 C63.8785501,122.49 55.7465501,142.006 33.7945501,124.928" id="Fill-17" fill="#6BACBE"></path>
            <path d="M75.1945501,253.584 C75.7635501,219.266 73.6515501,172.793 59.4845501,155.577 C59.4845501,155.577 57.2005501,160.448 38.9485501,156.719 C38.9485501,156.719 20.2985501,165.597 26.6095501,255.979 C42.8445501,256.686 59.1005501,255.765 75.1945501,253.584" id="Fill-18" fill="#1E5264"></path>
            <path d="M59.7105501,89.929 C56.9295501,99.465 52.4905501,113.486 49.9285501,115.407 C46.6595501,117.858 39.9895501,97.532 37.8405501,90.629 C44.2865501,89.718 52.0955501,89.148 59.7105501,89.929" id="Fill-19" fill="#F8F2E9"></path>
            <path d="M49.8165501,95.225 C46.8295501,95.225 42.1745501,94.32 42.1745501,91.331 L43.6145501,72.66 C43.6145501,69.671 46.0365501,67.251 49.0225501,67.251 C50.5155501,67.251 51.8675501,67.858 52.8465501,68.834 C53.8245501,69.812 54.4305501,71.164 54.4305501,72.66 L55.7295501,89.746 C56.5935501,94.794 49.8165501,95.225 49.8165501,95.225" id="Fill-20" fill="#CA7A65"></path>
            <path d="M27.1535501,52.578 C27.1535501,52.578 20.7085501,44.609 19.3395501,52.626 C18.2485501,59.002 24.1225501,63.376 27.5545501,62.029 C30.9855501,60.69 27.1535501,52.578 27.1535501,52.578" id="Fill-21" fill="#E8A489"></path>
            <path d="M27.2875501,54.043 C27.2875501,54.043 22.7545501,49.044 21.7795501,51.545 C20.7995501,54.045 21.5895501,56.903 21.5895501,56.903 C21.5895501,56.903 21.8785501,53.584 24.5585501,54.987 C24.5585501,54.987 22.9645501,60.495 27.5025501,58.212 C27.5025501,58.212 29.2325501,56.323 27.2875501,54.043" id="Fill-22" fill="#CA7A65"></path>
            <path d="M29.8075501,61.956 C29.4335501,61.318 28.6535501,60.823 27.8575501,60.674 C27.0305501,59.969 25.8985501,59.951 24.9685501,60.465 C23.0715501,61.512 22.7205501,64.629 24.3495501,66.028 C25.8365501,67.306 28.3315501,66.949 29.4625501,65.378 C30.1235501,64.463 30.4105501,62.985 29.8075501,61.956" id="Fill-23" fill="#AB482C"></path>
            <path d="M71.1265501,51.671 C71.1265501,51.671 76.7695501,43.124 78.9065501,50.965 C80.6075501,57.209 75.1815501,62.132 71.6335501,61.121 C68.0895501,60.117 71.1265501,51.671 71.1265501,51.671" id="Fill-24" fill="#E8A489"></path>
            <path d="M71.1305501,53.145 C71.1305501,53.145 75.1615501,47.727 76.3725501,50.129 C77.5905501,52.522 77.0765501,55.442 77.0765501,55.442 C77.0765501,55.442 76.4715501,52.166 73.9385501,53.824 C73.9385501,53.824 76.0545501,59.147 71.3185501,57.314 C71.3185501,57.314 69.4135501,55.6 71.1305501,53.145" id="Fill-25" fill="#CA7A65"></path>
            <path d="M75.2515501,60.237 C74.8775501,59.598 74.0975501,59.103 73.3015501,58.955 C72.4745501,58.25 71.3415501,58.231 70.4125501,58.745 C68.5145501,59.793 68.1635501,62.91 69.7925501,64.309 C71.2795501,65.587 73.7745501,65.23 74.9055501,63.66 C75.5665501,62.743 75.8545501,61.265 75.2515501,60.237" id="Fill-26" fill="#AB482C"></path>
            <path d="M71.0455501,54.469 C70.4735501,42.595 66.9565501,30.585 58.2955501,25.554 C53.7505501,29.928 47.3015501,32.206 41.6325501,34.645 C36.4365501,36.88 31.1175501,39.356 27.6795501,43.519 C26.9685501,47.7 26.8035501,52.176 27.0165501,56.597 C27.7845501,72.548 39.9645501,81.406 52.8845501,80.502 C65.0255501,79.653 71.8165501,70.423 71.0455501,54.469" id="Fill-27" fill="#E8A489"></path>
            <path d="M60.9135326,47.0982056 C63.8805944,46.7152056 66.1710669,50.1752056 66.1710669,53.7482056 C66.1710669,54.1172056 65.8164782,54.1852056 65.6644007,53.9222056 C64.4485571,51.7722056 64.0637081,49.6692056 61.843843,48.8392056 C58.5710744,47.6322056 56.7833886,51.9512056 56.5987232,55.3502056 C56.5769978,55.6812056 56.2262886,55.6772056 56.2045633,55.3502056 C55.9073915,51.2912056 57.5965374,47.5252056 60.9135326,47.0982056" id="Fill-32" fill="#251413" transform="translate(61.171067, 51.333028) rotate(-88.000000) translate(-61.171067, -51.333028) "></path>
            <path d="M47.5885501,62.125 C47.5885501,62.125 50.4515501,66.968 53.5485501,62.03 L47.5885501,62.125" id="Fill-33" fill="#CA7A65"></path>
            <path d="M38.7109444,47.0989649 C35.7400489,46.7179649 33.4519395,50.1759649 33.4519395,53.7489649 C33.4519395,54.1179649 33.8072986,54.1859649 33.957046,53.9229649 C35.172095,51.7759649 35.5584898,49.6699649 37.7790965,48.8399649 C41.048711,47.6349649 42.8371451,51.9519649 43.0272389,55.3539649 C43.0427568,55.6819649 43.3950124,55.6779649 43.4190651,55.3539649 C43.7131286,51.2919649 42.0255607,47.5259649 38.7109444,47.0989649" id="Fill-38" fill="#251413" transform="translate(38.451939, 51.334300) rotate(89.000000) translate(-38.451939, -51.334300) "></path>
            <path d="M43.7425501,61.504 C43.7425501,64.133 41.0165501,66.265 37.6515501,66.265 C34.2925501,66.265 31.5635501,64.133 31.5635501,61.504 C31.5635501,58.883 34.2925501,56.747 37.6515501,56.747 C41.0165501,56.747 43.7425501,58.883 43.7425501,61.504" id="Fill-39" fill="#E37F6B"></path>
            <path d="M67.8155501,61.504 C67.8155501,64.133 65.0905501,66.265 61.7285501,66.265 C58.3655501,66.265 55.6385501,64.133 55.6385501,61.504 C55.6385501,58.883 58.3655501,56.747 61.7285501,56.747 C65.0905501,56.747 67.8155501,58.883 67.8155501,61.504" id="Fill-40" fill="#E37F6B"></path>
            <path d="M44.6735501,41.484 C43.6765501,40.793 42.0825501,40.719 40.9055501,40.539 C39.5235501,40.327 38.1605501,40.407 36.8215501,40.804 C34.1395501,41.599 32.8745501,43.533 31.6075501,45.841 C31.4675501,46.095 31.8115501,46.381 32.0175501,46.157 C33.5615501,44.479 35.3755501,42.829 37.6165501,42.24 C38.9945501,41.878 40.3775501,42.073 41.7485501,42.342 C42.7105501,42.531 43.7905501,42.808 44.6735501,42.273 C44.9825501,42.086 44.9525501,41.678 44.6735501,41.484" id="Fill-41" fill="#F4DDB4"></path>
            <path d="M56.8515501,41.484 C57.8485501,40.793 59.4415501,40.719 60.6195501,40.539 C62.0015501,40.327 63.3635501,40.407 64.7035501,40.804 C67.3855501,41.599 68.6495501,43.533 69.9175501,45.841 C70.0565501,46.095 69.7135501,46.381 69.5065501,46.157 C67.9635501,44.479 66.1495501,42.829 63.9075501,42.24 C62.5305501,41.878 61.1485501,42.073 59.7765501,42.342 C58.8155501,42.531 57.7335501,42.808 56.8515501,42.273 C56.5425501,42.086 56.5715501,41.678 56.8515501,41.484" id="Fill-42" fill="#F4DDB4"></path>
            <path d="M43.3995501,66.49 C43.3995501,66.49 56.8117373,67.105 59.3995501,66.49 C59.3995501,66.49 55.8712369,78.282 43.3995501,66.49" id="Fill-110" fill="#FFFFFE" transform="translate(51.399550, 69.110444) rotate(-178.000000) translate(-51.399550, -69.110444) "></path>
        </g>
    </g>
</svg>