<?xml version="1.0" encoding="UTF-8"?>
<svg width="77px" height="137px" viewBox="0 0 77 137" version="1.1" xmlns="http://www.w3.org/2000/svg" xmlns:xlink="http://www.w3.org/1999/xlink">
    <!-- Generator: Sketch 64 (93537) - https://sketch.com -->
    <title>Page 2</title>
    <desc>Created with Sketch.</desc>
    <g id="Page-2" stroke="none" stroke-width="1" fill="none" fill-rule="evenodd">
        <path d="M76.1110177,62.8843385 C74.4032926,56.9788041 70.1266818,52.4159361 67.6052329,46.8639277 C65.1622373,41.4859348 64.4707546,35.6958 63.2282751,29.9514588 C61.1483534,20.3311527 56.2331702,9.05861573 44.9450341,9 L22.2136801,10.6467356 C21.3616421,23.1227267 16.0031071,32.9097213 8.85474489,42.8194426 C2.27197538,51.9451785 -4.13199384,62.0930262 3.40133634,72.757425 C9.20504748,80.9727855 18.5665193,82.031532 27.3678719,79.0512887 C34.4341319,76.6590343 41.4584287,72.1822582 48.4644805,76.7689388 C53.7299663,80.2144445 58.9461908,84.7205285 65.5727481,84.9897945 C76.5926838,85.4385711 78.4463683,70.978804 76.1110177,62.8843385" id="Fill-338" fill="#F4DDB4"></path>
        <path d="M43.5343945,49.7171416 C46.7041939,49.4238584 49.6427674,48.2744067 52.4065557,46.7114439 C53.8266842,47.0174786 55.3469498,47.1322416 55.7383955,47.0775926 C61.7229623,46.2778948 65.997913,40.8603525 67.8859555,35.0074395 C71.8859839,22.5929975 64.6196601,6.68101634 53.9850831,1.97391168 C47.4051548,-0.938882576 38.4255735,-0.365067573 31.4633029,1.98666312 C23.7053963,4.60981742 16.977993,13.6505916 15.6325124,22.0956911 C11.4249268,48.5330789 29.052726,51.0578649 43.5343945,49.7171416" id="Fill-343" fill="#F4DDB4"></path>
        <path d="M67,75.8793468 L52.7646709,134.275811 C52.7646709,134.275811 50.4486054,136.469648 44.5973968,136.931508 C38.7443659,137.395172 33.1974712,135.352884 33.1974712,135.352884 C32.6416884,133.169872 18,75.8793468 18,75.8793468 C18,75.8793468 23.9022313,74.1545871 32.1423949,73.0071529 C38.2851618,72.1483814 45.7235403,71.6107471 52.9778728,72.346837 C57.8924507,72.842976 62.7140945,73.9218528 67,75.8793468" id="Fill-344" fill="#88CFE8"></path>
        <path d="M28,105.322211 C28,105.322211 50.7298792,107.648067 57,103 C57,103 49.1609663,121.599558 28,105.322211" id="Fill-345" fill="#6BACBE"></path>
        <path d="M53,72.3528529 C50.3295435,81.504332 46.0685674,94.9617418 43.6074864,96.8045186 C40.4668532,99.1557109 34.0643694,79.6505427 32,73.0246221 C38.1912716,72.1509551 45.6883855,71.6039954 53,72.3528529" id="Fill-347" fill="#F8F2E9"></path>
        <path d="M43.2889478,77 C40.4372268,77 36,76.128675 36,73.2414878 L37.3720372,55.2187201 C37.3720372,52.3333789 39.683701,50 42.531773,50 C43.9548967,50 45.2448306,50.5851908 46.1789837,51.5248188 C47.1113121,52.471831 47.6933333,53.7769725 47.6933333,55.2187201 L48.9267072,71.7129769 C49.7550381,76.5846438 43.2889478,77 43.2889478,77" id="Fill-348" fill="#CA7A65"></path>
        <path d="M22.1299749,36.4674401 C22.1299749,36.4674401 15.5374751,28.6344567 14.1363977,36.5144456 C13.019058,42.7830886 19.0303846,47.0850248 22.5369918,45.7594719 C26.0514262,44.4433201 22.1299749,36.4674401 22.1299749,36.4674401" id="Fill-349" fill="#E8A489"></path>
        <path d="M22.0637202,37.8258111 C22.0637202,37.8258111 17.4825231,33.4098053 16.4943459,35.6186532 C15.5061687,37.8291912 16.3048325,40.3540717 16.3048325,40.3540717 C16.3048325,40.3540717 16.5968379,37.4218979 19.3080402,38.6606779 C19.3080402,38.6606779 17.6952423,43.5279174 22.2822408,41.510041 C22.2822408,41.510041 24.0342731,39.8403075 22.0637202,37.8258111" id="Fill-350" fill="#CA7A65"></path>
        <path d="M24.6620273,45.6558662 C24.2775884,45.0836178 23.479289,44.6398683 22.6633369,44.5062295 C21.8160019,43.8757283 20.6509164,43.8585951 19.6976646,44.3194778 C17.7519326,45.2583763 17.3949535,48.0493721 19.0641249,49.3035212 C20.5901123,50.4497313 23.1478085,50.1293408 24.3089711,48.7227063 C24.9876236,47.9003134 25.2779143,46.5793449 24.6620273,45.6558662" id="Fill-351" fill="#AB482C"></path>
        <path d="M64.0407316,35.8377611 C64.0407316,35.8377611 68.8881727,27.6705302 70.7236275,35.164929 C72.1844327,41.1344856 67.5243164,45.8406535 64.4761797,44.8734574 C61.4313294,43.9172313 64.0407316,35.8377611 64.0407316,35.8377611" id="Fill-352" fill="#E8A489"></path>
        <path d="M63.7425671,37.1053207 C63.7425671,37.1053207 67.9096698,32.4706753 69.1570331,34.5254281 C70.418234,36.5720011 69.8904274,39.0700963 69.8904274,39.0700963 C69.8904274,39.0700963 69.2637805,36.2677145 66.6445153,37.6860829 C66.6445153,37.6860829 68.8308604,42.2389308 63.9362939,40.671691 C63.9362939,40.671691 61.9654204,39.2058801 63.7425671,37.1053207" id="Fill-353" fill="#CA7A65"></path>
        <path d="M67.6632403,43.6532302 C67.2788558,43.082574 66.4806697,42.6387303 65.6628721,42.5050631 C64.8136962,41.8761417 63.6526982,41.8590049 62.6976204,42.3182717 C60.7541254,43.2556559 60.3932747,46.0506717 62.0641705,47.3033734 C63.5879804,48.4498268 66.147275,48.1293682 67.308273,46.7224351 C67.9848681,45.8998676 68.2790399,44.5751912 67.6632403,43.6532302" id="Fill-354" fill="#AB482C"></path>
        <path d="M63.9434352,38.3314875 C63.3979208,27.1081858 60.059373,15.754717 51.820288,11 C47.5016328,15.1328073 41.3682332,17.2877969 35.9803698,19.5928403 C31.0398282,21.7062488 25.9829102,24.043834 22.7134609,27.9813905 C22.0388415,31.9334101 21.878824,36.1638427 22.0824827,40.3436548 C22.8116535,55.4231585 34.3929231,63.7954378 46.6779061,62.9403119 C58.2209897,62.1376145 64.6780612,53.4127991 63.9434352,38.3314875" id="Fill-355" fill="#E8A489"></path>
        <path d="M49,36.499092 C49,39.5355787 51.4658303,42 54.5,42 C57.539617,42 60,39.5355787 60,36.499092 C60,33.4626053 57.539617,31 54.5,31 C51.4658303,31 49,33.4626053 49,36.499092" id="Fill-356" fill="#FFFFFE"></path>
        <path d="M57,35.5017986 C57,37.9856115 55.4322097,40 53.5026217,40 C51.5660424,40 50,37.9856115 50,35.5017986 C50,33.0161871 51.5660424,31 53.5026217,31 C55.4322097,31 57,33.0161871 57,35.5017986" id="Fill-357" fill="#5A7192"></path>
        <path d="M56,36.0033746 C56,37.6552306 54.8800985,39 53.5,39 C52.1163854,39 51,37.6552306 51,36.0033746 C51,34.3447694 52.1163854,33 53.5,33 C54.8800985,33 56,34.3447694 56,36.0033746" id="Fill-358" fill="#291413"></path>
        <path d="M56,33.001 C56,33.537 55.5497954,33.967 55.0013643,33.967 C54.4474761,33.967 54,33.537 54,33.001 C54,32.463 54.4474761,32.033 55.0013643,32.033 C55.5497954,32.033 56,32.463 56,33.001" id="Fill-359" fill="#FFFFFE"></path>
        <path d="M53.691361,30.0272335 C57.2525459,29.6684838 60,32.9133752 60,36.2640977 C60,36.6102912 59.5708772,36.6748662 59.3910374,36.4291226 C57.9327322,34.4111553 57.4715587,32.4398255 54.809573,31.6613386 C50.8815861,30.5294831 48.7341917,34.5797677 48.5116176,37.7672592 C48.4884699,38.0793714 48.0664695,38.0757839 48.0397606,37.7672592 C47.6854227,33.9609244 49.7099563,30.4272395 53.691361,30.0272335" id="Fill-360" fill="#251413"></path>
        <path d="M41,45.1267292 C41,45.1267292 43.8815409,51.6752641 47,45 L41,45.1267292" id="Fill-361" fill="#CA7A65"></path>
        <path d="M38,36.4981842 C38,39.5378013 35.539617,42 32.4963684,42 C29.4640145,42 27,39.5378013 27,36.4981842 C27,33.4621987 29.4640145,31 32.4963684,31 C35.539617,31 38,33.4621987 38,36.4981842" id="Fill-362" fill="#FFFFFE"></path>
        <path d="M36,35.5 C36,37.9848061 34.6576862,40 32.9968304,40 C31.3423138,40 30,37.9848061 30,35.5 C30,33.0133946 31.3423138,31 32.9968304,31 C34.6576862,31 36,33.0133946 36,35.5" id="Fill-363" fill="#5A7192"></path>
        <path d="M35,36.0033746 C35,37.6586052 34.1048327,39 32.997026,39 C31.8921933,39 31,37.6586052 31,36.0033746 C31,34.3447694 31.8921933,33 32.997026,33 C34.1048327,33 35,34.3447694 35,36.0033746" id="Fill-364" fill="#291413"></path>
        <path d="M36,33.004 C36,33.536 35.3266187,33.968 34.5,33.968 C33.6755396,33.968 33,33.536 33,33.004 C33,32.462 33.6755396,32.032 34.5,32.032 C35.3266187,32.032 36,32.462 36,33.004" id="Fill-365" fill="#FFFFFE"></path>
        <path d="M32.8347793,30.0269844 C28.9746626,29.6700574 26,32.9128916 26,36.263342 C26,36.6095073 26.4629825,36.674077 26.6558919,36.4283534 C28.2358197,34.4159309 28.7393132,32.4393804 31.6233084,31.6609567 C35.8769602,30.5309869 38.2015182,34.5791488 38.4484422,37.7699685 C38.4677331,38.0784682 38.9287865,38.074881 38.9577229,37.7699685 C39.3377544,33.9603557 37.1443748,30.4269579 32.8347793,30.0269844" id="Fill-366" fill="#251413"></path>
        <path d="M38,44.9969861 C38,47.7596946 35.312392,50 31.9971729,50 C28.6857233,50 26,47.7596946 26,44.9969861 C26,42.2443239 28.6857233,40 31.9971729,40 C35.312392,40 38,42.2443239 38,44.9969861" id="Fill-367" fill="#E37F6B"></path>
        <path d="M61,44.9969861 C61,47.7596946 58.3157399,50 55.001885,50 C51.6861451,50 49,47.7596946 49,44.9969861 C49,42.2443239 51.6861451,40 55.001885,40 C58.3157399,40 61,42.2443239 61,44.9969861" id="Fill-368" fill="#E37F6B"></path>
        <path d="M38.7856985,25.9114635 C37.8132127,25.3161369 36.2546221,25.2536441 35.1066782,25.0990565 C33.7590107,24.914867 32.4300089,24.9855826 31.1234061,25.3276487 C28.5046007,26.0101364 27.2689277,27.672775 26.0313882,29.6561006 C25.8951282,29.8764701 26.2348449,30.1231524 26.4308353,29.9307402 C27.9408949,28.4868266 29.7085419,27.0675811 31.8980349,26.5610602 C33.2438359,26.2502405 34.5896368,26.4179844 35.9279714,26.6482212 C36.8687255,26.8110316 37.9233406,27.0494911 38.7856985,26.5890175 C39.0843506,26.4278517 39.0582185,26.0775629 38.7856985,25.9114635" id="Fill-369" fill="#F4DDB4"></path>
        <path d="M50.2157759,25.9114635 C51.1864072,25.3161369 52.7431504,25.2536441 53.8948417,25.0990565 C55.2406593,24.914867 56.5734107,24.9855826 57.8818963,25.3276487 C60.4951343,26.0101364 61.7308226,27.672775 62.9683774,29.6561006 C63.1046391,29.8764701 62.7686514,30.1231524 62.5670587,29.9307402 C61.0607137,28.4868266 59.2911782,27.0675811 57.1016581,26.5610602 C55.7577071,26.2502405 54.4100229,26.4179844 53.0716717,26.6482212 C52.1327727,26.8110316 51.0762779,27.0494911 50.2157759,26.5890175 C49.9115203,26.4278517 49.9451191,26.0775629 50.2157759,25.9114635" id="Fill-370" fill="#F4DDB4"></path>
        <path d="M45.3342618,48.9438031 C44.5023213,49.114782 43.9489322,49.6448163 43.8783658,50.4381581 C42.9517177,50.1167179 42.7604457,49.1489777 41.8765088,48.8429256 C40.9832869,48.5351637 40.1420613,49.0651981 39.2859796,49.3148272 C37.7780873,49.752533 35.6815227,49.3096978 35,48 C36.457753,50.7989234 37.6610956,54.2646643 41.5998143,54.8083769 C42.6508821,54.9537089 43.8857939,55.0939116 44.9387187,54.9178034 C48.5728877,54.3142481 49.9582173,51.3614438 51,48.4240275 C48.9145775,49.6413967 47.5292479,49.2908902 45.3342618,48.9438031" id="Fill-371" fill="#B94546"></path>
        <path d="M37,50 C37,50 43.6539232,56.6105477 49,50.205926 C49,50.205926 43.0582704,52.3745847 37,50" id="Fill-372" fill="#FFFFFE"></path>
        <path d="M27.6830243,115.314803 C27.6830243,115.314803 69.959895,134.730463 75.6337708,111.841099 C81.3131358,88.9590787 67.4495571,75 67.4495571,75 C67.4495571,75 58.2425454,76.7919322 59.1116492,87.6279815 C59.4025703,91.23755 63.4370419,97.0815257 63.4370419,97.0815257 C63.4370419,97.0815257 71.244339,114.747481 61.1499265,112.841717 C51.0536843,110.934117 28.8284117,102.262707 22,109.898615 L27.6830243,115.314803" id="Fill-373" fill="#88CFE8"></path>
        <path d="M65.9992606,112.769723 C65.7331045,111.30525 65.0057326,109.86566 63.1061798,110.814723 C63.4397865,108.902378 61.1227697,109.08366 60.1274186,110.086041 C59.9123061,108.113269 57.4512733,109.216955 55.8980882,110.343746 C53.8381126,111.387005 48.3418059,114.538109 48.0118453,115.021527 C48.0118453,115.021527 47.4922939,119.285204 53.3349681,118.984844 C57.0483931,118.796454 66.094056,112.876359 65.9992606,112.769723" id="Fill-374" fill="#ECA98E"></path>
        <path d="M49.9942909,110.834793 C40.9682782,112.676945 17.9130765,114.51175 17.0940126,107.132123 C16.0085716,97.3648629 22.8945078,88.4442942 22.8945078,88.4442942 C22.8945078,88.4442942 20.7816126,74.8145762 18.2954272,75.0019136 C15.8110539,75.1910877 4.05422389,88.9401874 7.69289755,111.861476 C10.8694886,131.842301 32.3064953,124.369006 51,119.503742 C49.9797942,116.036162 50.5650988,114.436447 49.9942909,110.834793" id="Fill-375" fill="#88CFE8"></path>
        <path d="M23.1539834,109.402207 C21.4731473,109.004048 20.2110729,108.769098 18.5900599,109.343021 C16.9748362,109.913357 16.2955546,110.822666 15.7648658,111.974099 C15.4715396,112.383019 15.2322472,112.86906 15.0585672,113.460918 C14.8675193,114.135277 15.1357583,114.657188 15.9829306,114.544197 C16.3013439,114.501153 16.5830914,114.400716 16.8455411,114.266203 C16.5888807,114.768386 16.4344985,115.295677 16.7181758,115.70101 C17.0211509,116.138626 17.6020139,116.21216 18.0574413,115.903677 C18.3391888,115.718945 18.5862003,115.494757 18.8158438,115.261601 C18.5823408,115.896503 18.6518128,116.502709 19.2558331,116.908042 C19.4160046,117.012065 19.6495077,117.047935 19.8019601,116.908042 C21.8513837,115.017683 26.3516246,114.425825 28.6673575,112.714818 C30.6453793,111.254902 23.1559132,109.402207 23.1539834,109.402207" id="Fill-376" fill="#ECA98E"></path>
        <path d="M76.1110177,62.8843385 C74.4032926,56.9788041 70.1266818,52.4159361 67.6052329,46.8639277 C65.1622373,41.4859348 64.4707546,35.6958 63.2282751,29.9514588 C61.1483534,20.3311527 56.2331702,9.05861573 44.9450341,9 L22.2136801,10.6467356 C21.3616421,23.1227267 16.0031071,32.9097213 8.85474489,42.8194426 C2.27197538,51.9451785 -4.13199384,62.0930262 3.40133634,72.757425 C9.20504748,80.9727855 18.5665193,82.031532 27.3678719,79.0512887 C34.4341319,76.6590343 41.4584287,72.1822582 48.4644805,76.7689388 C53.7299663,80.2144445 58.9461908,84.7205285 65.5727481,84.9897945 C76.5926838,85.4385711 78.4463683,70.978804 76.1110177,62.8843385" id="Fill-338" fill="#F4DDB4"></path>
        <path d="M43.5343945,49.7171416 C46.7041939,49.4238584 49.6427674,48.2744067 52.4065557,46.7114439 C53.8266842,47.0174786 55.3469498,47.1322416 55.7383955,47.0775926 C61.7229623,46.2778948 65.997913,40.8603525 67.8859555,35.0074395 C71.8859839,22.5929975 64.6196601,6.68101634 53.9850831,1.97391168 C47.4051548,-0.938882576 38.4255735,-0.365067573 31.4633029,1.98666312 C23.7053963,4.60981742 16.977993,13.6505916 15.6325124,22.0956911 C11.4249268,48.5330789 29.052726,51.0578649 43.5343945,49.7171416" id="Fill-343" fill="#F4DDB4"></path>
        <path d="M67,75.8793468 L52.7646709,134.275811 C52.7646709,134.275811 50.4486054,136.469648 44.5973968,136.931508 C38.7443659,137.395172 33.1974712,135.352884 33.1974712,135.352884 C32.6416884,133.169872 18,75.8793468 18,75.8793468 C18,75.8793468 23.9022313,74.1545871 32.1423949,73.0071529 C38.2851618,72.1483814 45.7235403,71.6107471 52.9778728,72.346837 C57.8924507,72.842976 62.7140945,73.9218528 67,75.8793468" id="Fill-344" fill="#88CFE8"></path>
        <path d="M28,105.322211 C28,105.322211 50.7298792,107.648067 57,103 C57,103 49.1609663,121.599558 28,105.322211" id="Fill-345" fill="#6BACBE"></path>
        <path d="M53,72.3528529 C50.3295435,81.504332 46.0685674,94.9617418 43.6074864,96.8045186 C40.4668532,99.1557109 34.0643694,79.6505427 32,73.0246221 C38.1912716,72.1509551 45.6883855,71.6039954 53,72.3528529" id="Fill-347" fill="#F8F2E9"></path>
        <path d="M43.2889478,77 C40.4372268,77 36,76.128675 36,73.2414878 L37.3720372,55.2187201 C37.3720372,52.3333789 39.683701,50 42.531773,50 C43.9548967,50 45.2448306,50.5851908 46.1789837,51.5248188 C47.1113121,52.471831 47.6933333,53.7769725 47.6933333,55.2187201 L48.9267072,71.7129769 C49.7550381,76.5846438 43.2889478,77 43.2889478,77" id="Fill-348" fill="#CA7A65"></path>
        <path d="M22.1299749,36.4674401 C22.1299749,36.4674401 15.5374751,28.6344567 14.1363977,36.5144456 C13.019058,42.7830886 19.0303846,47.0850248 22.5369918,45.7594719 C26.0514262,44.4433201 22.1299749,36.4674401 22.1299749,36.4674401" id="Fill-349" fill="#E8A489"></path>
        <path d="M22.0637202,37.8258111 C22.0637202,37.8258111 17.4825231,33.4098053 16.4943459,35.6186532 C15.5061687,37.8291912 16.3048325,40.3540717 16.3048325,40.3540717 C16.3048325,40.3540717 16.5968379,37.4218979 19.3080402,38.6606779 C19.3080402,38.6606779 17.6952423,43.5279174 22.2822408,41.510041 C22.2822408,41.510041 24.0342731,39.8403075 22.0637202,37.8258111" id="Fill-350" fill="#CA7A65"></path>
        <path d="M24.6620273,45.6558662 C24.2775884,45.0836178 23.479289,44.6398683 22.6633369,44.5062295 C21.8160019,43.8757283 20.6509164,43.8585951 19.6976646,44.3194778 C17.7519326,45.2583763 17.3949535,48.0493721 19.0641249,49.3035212 C20.5901123,50.4497313 23.1478085,50.1293408 24.3089711,48.7227063 C24.9876236,47.9003134 25.2779143,46.5793449 24.6620273,45.6558662" id="Fill-351" fill="#AB482C"></path>
        <path d="M64.0407316,35.8377611 C64.0407316,35.8377611 68.8881727,27.6705302 70.7236275,35.164929 C72.1844327,41.1344856 67.5243164,45.8406535 64.4761797,44.8734574 C61.4313294,43.9172313 64.0407316,35.8377611 64.0407316,35.8377611" id="Fill-352" fill="#E8A489"></path>
        <path d="M63.7425671,37.1053207 C63.7425671,37.1053207 67.9096698,32.4706753 69.1570331,34.5254281 C70.418234,36.5720011 69.8904274,39.0700963 69.8904274,39.0700963 C69.8904274,39.0700963 69.2637805,36.2677145 66.6445153,37.6860829 C66.6445153,37.6860829 68.8308604,42.2389308 63.9362939,40.671691 C63.9362939,40.671691 61.9654204,39.2058801 63.7425671,37.1053207" id="Fill-353" fill="#CA7A65"></path>
        <path d="M67.6632403,43.6532302 C67.2788558,43.082574 66.4806697,42.6387303 65.6628721,42.5050631 C64.8136962,41.8761417 63.6526982,41.8590049 62.6976204,42.3182717 C60.7541254,43.2556559 60.3932747,46.0506717 62.0641705,47.3033734 C63.5879804,48.4498268 66.147275,48.1293682 67.308273,46.7224351 C67.9848681,45.8998676 68.2790399,44.5751912 67.6632403,43.6532302" id="Fill-354" fill="#AB482C"></path>
        <path d="M63.9434352,38.3314875 C63.3979208,27.1081858 60.059373,15.754717 51.820288,11 C47.5016328,15.1328073 41.3682332,17.2877969 35.9803698,19.5928403 C31.0398282,21.7062488 25.9829102,24.043834 22.7134609,27.9813905 C22.0388415,31.9334101 21.878824,36.1638427 22.0824827,40.3436548 C22.8116535,55.4231585 34.3929231,63.7954378 46.6779061,62.9403119 C58.2209897,62.1376145 64.6780612,53.4127991 63.9434352,38.3314875" id="Fill-355" fill="#E8A489"></path>
        <path d="M49,36.499092 C49,39.5355787 51.4658303,42 54.5,42 C57.539617,42 60,39.5355787 60,36.499092 C60,33.4626053 57.539617,31 54.5,31 C51.4658303,31 49,33.4626053 49,36.499092" id="Fill-356" fill="#FFFFFE"></path>
        <path d="M57,35.5017986 C57,37.9856115 55.4322097,40 53.5026217,40 C51.5660424,40 50,37.9856115 50,35.5017986 C50,33.0161871 51.5660424,31 53.5026217,31 C55.4322097,31 57,33.0161871 57,35.5017986" id="Fill-357" fill="#5A7192"></path>
        <path d="M56,36.0033746 C56,37.6552306 54.8800985,39 53.5,39 C52.1163854,39 51,37.6552306 51,36.0033746 C51,34.3447694 52.1163854,33 53.5,33 C54.8800985,33 56,34.3447694 56,36.0033746" id="Fill-358" fill="#291413"></path>
        <path d="M56,33.001 C56,33.537 55.5497954,33.967 55.0013643,33.967 C54.4474761,33.967 54,33.537 54,33.001 C54,32.463 54.4474761,32.033 55.0013643,32.033 C55.5497954,32.033 56,32.463 56,33.001" id="Fill-359" fill="#FFFFFE"></path>
        <path d="M53.691361,30.0272335 C57.2525459,29.6684838 60,32.9133752 60,36.2640977 C60,36.6102912 59.5708772,36.6748662 59.3910374,36.4291226 C57.9327322,34.4111553 57.4715587,32.4398255 54.809573,31.6613386 C50.8815861,30.5294831 48.7341917,34.5797677 48.5116176,37.7672592 C48.4884699,38.0793714 48.0664695,38.0757839 48.0397606,37.7672592 C47.6854227,33.9609244 49.7099563,30.4272395 53.691361,30.0272335" id="Fill-360" fill="#251413"></path>
        <path d="M41,45.1267292 C41,45.1267292 43.8815409,51.6752641 47,45 L41,45.1267292" id="Fill-361" fill="#CA7A65"></path>
        <path d="M38,36.4981842 C38,39.5378013 35.539617,42 32.4963684,42 C29.4640145,42 27,39.5378013 27,36.4981842 C27,33.4621987 29.4640145,31 32.4963684,31 C35.539617,31 38,33.4621987 38,36.4981842" id="Fill-362" fill="#FFFFFE"></path>
        <path d="M36,35.5 C36,37.9848061 34.6576862,40 32.9968304,40 C31.3423138,40 30,37.9848061 30,35.5 C30,33.0133946 31.3423138,31 32.9968304,31 C34.6576862,31 36,33.0133946 36,35.5" id="Fill-363" fill="#5A7192"></path>
        <path d="M35,36.0033746 C35,37.6586052 34.1048327,39 32.997026,39 C31.8921933,39 31,37.6586052 31,36.0033746 C31,34.3447694 31.8921933,33 32.997026,33 C34.1048327,33 35,34.3447694 35,36.0033746" id="Fill-364" fill="#291413"></path>
        <path d="M36,33.004 C36,33.536 35.3266187,33.968 34.5,33.968 C33.6755396,33.968 33,33.536 33,33.004 C33,32.462 33.6755396,32.032 34.5,32.032 C35.3266187,32.032 36,32.462 36,33.004" id="Fill-365" fill="#FFFFFE"></path>
        <path d="M32.8347793,30.0269844 C28.9746626,29.6700574 26,32.9128916 26,36.263342 C26,36.6095073 26.4629825,36.674077 26.6558919,36.4283534 C28.2358197,34.4159309 28.7393132,32.4393804 31.6233084,31.6609567 C35.8769602,30.5309869 38.2015182,34.5791488 38.4484422,37.7699685 C38.4677331,38.0784682 38.9287865,38.074881 38.9577229,37.7699685 C39.3377544,33.9603557 37.1443748,30.4269579 32.8347793,30.0269844" id="Fill-366" fill="#251413"></path>
        <path d="M38,44.9969861 C38,47.7596946 35.312392,50 31.9971729,50 C28.6857233,50 26,47.7596946 26,44.9969861 C26,42.2443239 28.6857233,40 31.9971729,40 C35.312392,40 38,42.2443239 38,44.9969861" id="Fill-367" fill="#E37F6B"></path>
        <path d="M61,44.9969861 C61,47.7596946 58.3157399,50 55.001885,50 C51.6861451,50 49,47.7596946 49,44.9969861 C49,42.2443239 51.6861451,40 55.001885,40 C58.3157399,40 61,42.2443239 61,44.9969861" id="Fill-368" fill="#E37F6B"></path>
        <path d="M38.7856985,25.9114635 C37.8132127,25.3161369 36.2546221,25.2536441 35.1066782,25.0990565 C33.7590107,24.914867 32.4300089,24.9855826 31.1234061,25.3276487 C28.5046007,26.0101364 27.2689277,27.672775 26.0313882,29.6561006 C25.8951282,29.8764701 26.2348449,30.1231524 26.4308353,29.9307402 C27.9408949,28.4868266 29.7085419,27.0675811 31.8980349,26.5610602 C33.2438359,26.2502405 34.5896368,26.4179844 35.9279714,26.6482212 C36.8687255,26.8110316 37.9233406,27.0494911 38.7856985,26.5890175 C39.0843506,26.4278517 39.0582185,26.0775629 38.7856985,25.9114635" id="Fill-369" fill="#F4DDB4"></path>
        <path d="M50.2157759,25.9114635 C51.1864072,25.3161369 52.7431504,25.2536441 53.8948417,25.0990565 C55.2406593,24.914867 56.5734107,24.9855826 57.8818963,25.3276487 C60.4951343,26.0101364 61.7308226,27.672775 62.9683774,29.6561006 C63.1046391,29.8764701 62.7686514,30.1231524 62.5670587,29.9307402 C61.0607137,28.4868266 59.2911782,27.0675811 57.1016581,26.5610602 C55.7577071,26.2502405 54.4100229,26.4179844 53.0716717,26.6482212 C52.1327727,26.8110316 51.0762779,27.0494911 50.2157759,26.5890175 C49.9115203,26.4278517 49.9451191,26.0775629 50.2157759,25.9114635" id="Fill-370" fill="#F4DDB4"></path>
        <path d="M45.3342618,48.9438031 C44.5023213,49.114782 43.9489322,49.6448163 43.8783658,50.4381581 C42.9517177,50.1167179 42.7604457,49.1489777 41.8765088,48.8429256 C40.9832869,48.5351637 40.1420613,49.0651981 39.2859796,49.3148272 C37.7780873,49.752533 35.6815227,49.3096978 35,48 C36.457753,50.7989234 37.6610956,54.2646643 41.5998143,54.8083769 C42.6508821,54.9537089 43.8857939,55.0939116 44.9387187,54.9178034 C48.5728877,54.3142481 49.9582173,51.3614438 51,48.4240275 C48.9145775,49.6413967 47.5292479,49.2908902 45.3342618,48.9438031" id="Fill-371" fill="#B94546"></path>
        <path d="M37,50 C37,50 43.6539232,56.6105477 49,50.205926 C49,50.205926 43.0582704,52.3745847 37,50" id="Fill-372" fill="#FFFFFE"></path>
        <path d="M27.6830243,115.314803 C27.6830243,115.314803 69.959895,134.730463 75.6337708,111.841099 C81.3131358,88.9590787 67.4495571,75 67.4495571,75 C67.4495571,75 58.2425454,76.7919322 59.1116492,87.6279815 C59.4025703,91.23755 63.4370419,97.0815257 63.4370419,97.0815257 C63.4370419,97.0815257 71.244339,114.747481 61.1499265,112.841717 C51.0536843,110.934117 28.8284117,102.262707 22,109.898615 L27.6830243,115.314803" id="Fill-373" fill="#88CFE8"></path>
        <path d="M65.9992606,112.769723 C65.7331045,111.30525 65.0057326,109.86566 63.1061798,110.814723 C63.4397865,108.902378 61.1227697,109.08366 60.1274186,110.086041 C59.9123061,108.113269 57.4512733,109.216955 55.8980882,110.343746 C53.8381126,111.387005 48.3418059,114.538109 48.0118453,115.021527 C48.0118453,115.021527 47.4922939,119.285204 53.3349681,118.984844 C57.0483931,118.796454 66.094056,112.876359 65.9992606,112.769723" id="Fill-374" fill="#ECA98E"></path>
        <path d="M49.9942909,110.834793 C40.9682782,112.676945 17.9130765,114.51175 17.0940126,107.132123 C16.0085716,97.3648629 22.8945078,88.4442942 22.8945078,88.4442942 C22.8945078,88.4442942 20.7816126,74.8145762 18.2954272,75.0019136 C15.8110539,75.1910877 4.05422389,88.9401874 7.69289755,111.861476 C10.8694886,131.842301 32.3064953,124.369006 51,119.503742 C49.9797942,116.036162 50.5650988,114.436447 49.9942909,110.834793" id="Fill-375" fill="#88CFE8"></path>
        <path d="M23.1539834,109.402207 C21.4731473,109.004048 20.2110729,108.769098 18.5900599,109.343021 C16.9748362,109.913357 16.2955546,110.822666 15.7648658,111.974099 C15.4715396,112.383019 15.2322472,112.86906 15.0585672,113.460918 C14.8675193,114.135277 15.1357583,114.657188 15.9829306,114.544197 C16.3013439,114.501153 16.5830914,114.400716 16.8455411,114.266203 C16.5888807,114.768386 16.4344985,115.295677 16.7181758,115.70101 C17.0211509,116.138626 17.6020139,116.21216 18.0574413,115.903677 C18.3391888,115.718945 18.5862003,115.494757 18.8158438,115.261601 C18.5823408,115.896503 18.6518128,116.502709 19.2558331,116.908042 C19.4160046,117.012065 19.6495077,117.047935 19.8019601,116.908042 C21.8513837,115.017683 26.3516246,114.425825 28.6673575,112.714818 C30.6453793,111.254902 23.1559132,109.402207 23.1539834,109.402207" id="Fill-376" fill="#ECA98E"></path>
    </g>
</svg>