<?xml version="1.0" encoding="UTF-8"?>
<svg width="131px" height="178px" viewBox="0 0 131 178" version="1.1" xmlns="http://www.w3.org/2000/svg" xmlns:xlink="http://www.w3.org/1999/xlink">
    <!-- Generator: Sketch 64 (93537) - https://sketch.com -->
    <title>Group 4</title>
    <desc>Created with Sketch.</desc>
    <g id="Page-2" stroke="none" stroke-width="1" fill="none" fill-rule="evenodd">
        <g id="Group-4" transform="translate(0.931362, 0.213707)">
            <path d="M64.4266381,37.6592928 C63.4936381,34.4362928 61.1476381,31.9462928 59.7646381,28.9142928 C58.4256381,25.9782928 58.0496381,22.8172928 57.3676381,19.6822928 C56.2276381,14.4282928 53.5346381,8.2752928 47.3446381,8.2422928 L34.8866381,9.1412928 C34.4206381,15.9522928 31.4846381,21.2972928 27.5666381,26.7062928 C23.9576381,31.6882928 20.4466381,37.2262928 24.5786381,43.0492928 C27.7576381,47.5332928 32.8866381,48.1132928 37.7126381,46.4842928 C41.5846381,45.1792928 45.4346381,42.7372928 49.2756381,45.2412928 C52.1616381,47.1202928 55.0196381,49.5812928 58.6506381,49.7272928 C64.6936381,49.9732928 65.7096381,42.0782928 64.4266381,37.6592928" id="Fill-45" fill="#F4DDB4"></path>
            <path d="M128.325638,125.462293 C125.478638,129.520293 122.936638,129.786293 119.411638,129.786293 C119.411638,129.786293 119.411638,129.786293 119.409638,129.786293 C119.341638,129.786293 119.261638,129.905293 119.191638,129.899293 C117.927638,129.821293 116.537638,129.717293 114.960638,129.518293 C111.805638,129.123293 108.844638,129.604293 105.988638,131.006293 C102.064638,132.930293 101.115638,135.878293 98.9326381,139.439293 C97.1066381,142.418293 94.4496381,144.786293 91.3496381,147.786293 C91.3496381,147.786293 91.3466381,147.786293 91.3476381,147.786293 C86.5446381,150.786293 80.6856381,153.222293 75.2256381,153.352293 C63.6666381,153.624293 54.3146381,145.673293 45.5666381,139.142293 C41.6176381,136.190293 37.9066381,134.247293 34.1576381,133.606293 C29.5476381,132.822293 24.8756381,133.839293 19.6116381,136.987293 C18.8096381,137.466293 17.9746381,138.010293 17.1096381,138.582293 C14.1366381,140.553293 10.8186381,142.592293 7.30763811,141.562293 C3.79463811,140.531293 2.13663811,136.557293 1.22363811,133.362293 C-2.24036189,121.238293 2.24863811,108.465293 7.23063811,97.4402928 C12.6586381,85.4232928 19.9316381,74.1942928 27.0226381,63.1102928 C29.8926381,58.6182928 34.2486381,52.7522928 34.0226381,47.1022928 L42.2586381,46.3182928 L46.0886381,45.9552928 L49.9516381,45.5892928 L50.7046381,45.5152928 L54.5756381,45.1472928 C58.5036381,46.1342928 62.6246381,50.6442928 65.3276381,53.4492928 C69.6886381,57.9702928 73.1646381,63.7402928 75.7896381,69.4242928 C82.2426381,83.3852928 86.8136381,97.8252928 97.4396381,109.395293 C102.193638,114.574293 107.618638,119.321293 114.549638,121.215293 C117.169638,121.930293 119.985638,122.225293 122.667638,121.692293 C124.280638,121.371293 125.954638,120.180293 127.612638,120.200293 C131.654638,120.255293 129.924638,123.177293 128.325638,125.462293" id="Fill-46" fill="#A93E2B"></path>
            <path d="M46.7616381,53.9582928 C46.7596381,67.5712928 40.8866381,81.6162928 37.5186381,94.6512928 C34.3816381,106.783293 32.2016381,120.724293 34.1566381,133.520293 C29.5476381,132.735293 24.8756381,133.795293 19.6116381,136.943293 C18.8096381,137.422293 17.9746381,137.987293 17.1096381,138.559293 C14.6246381,129.507293 14.3896381,119.565293 15.8466381,110.681293 C18.4486381,94.7962928 26.8316381,80.9582928 33.8276381,66.7612928 C36.8186381,60.6932928 39.5426381,54.4422928 41.7836381,48.0602928 C41.9676381,47.5392928 42.1206381,46.9472928 42.2586381,46.3182928 L46.0886381,45.9552928 C46.4916381,48.6262928 46.7616381,51.3162928 46.7616381,53.9582928" id="Fill-47" fill="#C3472C"></path>
            <path d="M119.410638,130.138293 C118.089638,130.051293 116.629638,129.837293 114.964638,129.628293 C111.809638,129.231293 108.845638,129.662293 105.990638,131.060293 C102.065638,132.982293 101.116638,135.557293 98.9336381,139.119293 C97.1076381,142.098293 94.4496381,144.842293 91.3496381,147.090293 L91.3466381,147.088293 C90.4266381,146.490293 89.5476381,145.890293 88.7136381,145.284293 C77.1816381,136.953293 68.9416381,125.095293 63.3646381,112.130293 C54.7166381,92.0152928 48.3606381,67.8472928 49.9516381,45.5892928 L50.7046381,45.5152928 C53.8046381,65.0022928 62.5586381,83.8782928 75.8606381,98.3502928 C84.2176381,107.446293 93.5896381,115.849293 104.091638,122.393293 C108.631638,125.221293 113.987638,127.492293 119.184638,130.029293 C119.259638,130.065293 119.335638,130.100293 119.410638,130.138293" id="Fill-48" fill="#C3472C"></path>
            <path d="M77.9276381,51.9412928 C77.9636381,52.1212928 78.0046381,52.3012928 78.0486381,52.4832928 C78.2266381,52.9992928 78.2176381,53.5152928 78.0226381,54.0352928 C77.9336381,54.1552928 77.8456381,54.2772928 77.7566381,54.3972928 C77.2716381,54.9312928 76.8286381,54.7912928 76.4236381,53.9822928 C76.4296381,53.4012928 76.4596381,52.5422928 77.2146381,52.4242928 C77.5176381,52.3752928 77.5886381,52.2952928 77.7976381,52.0862928 C77.8486381,52.0362928 77.8916381,51.9892928 77.9276381,51.9412928 Z M83.3046381,49.1422928 C83.1916381,49.1032928 83.0476381,49.1132928 82.9916381,49.2422928 C82.3916381,50.6152928 82.7606381,53.0142928 81.5506381,54.0682928 C81.6446381,52.8652928 81.9846381,51.9002928 81.5806381,50.6512928 C81.3016381,49.7972928 80.7396381,49.0252928 79.7896381,48.9772928 C79.6476381,48.9692928 79.5266381,49.1482928 79.5816381,49.2782928 C80.1876381,50.6172928 80.7716381,53.3172928 79.8196381,54.5992928 C79.4166381,55.1402928 79.5106381,53.8982928 79.5246381,53.7002928 C79.5476381,53.2572928 79.5796381,52.8262928 79.5206381,52.3852928 C79.4146381,51.6022928 78.8206381,51.2282928 78.1056381,51.0692928 C77.9976381,51.0452928 77.8786381,51.1132928 77.8386381,51.2172928 C77.5666381,51.0522928 77.1156381,50.9962928 76.7766381,51.0382928 C75.5036381,51.1842928 74.8536381,52.3982928 74.8396381,53.5622928 C74.8316381,54.4172928 75.1476381,55.2922928 75.3756381,56.1052928 C75.7546381,57.4502928 75.6226381,58.5312928 75.1746381,59.8482928 C75.1486381,59.9242928 75.1646381,59.9852928 75.1996381,60.0302928 C74.7766381,61.9632928 78.2446381,62.9142928 78.9056381,60.8642928 C78.9176381,60.8232928 78.9156381,60.7862928 78.9106381,60.7562928 C79.9316381,59.8402928 80.6426381,58.6992928 81.2996381,57.4292928 C81.8076381,56.4402928 82.4206381,55.5422928 83.0076381,54.5932928 C83.8596381,53.2072928 85.7236381,50.0292928 83.3046381,49.1422928 L83.3046381,49.1422928 Z" id="Fill-49" fill="#E8A489"></path>
            <path d="M54.4926381,48.8992928 C54.4926381,48.8992928 55.5116381,74.4402928 63.8296381,74.0592928 C72.1486381,73.6772928 78.0896381,62.8762928 78.2216381,62.2882928 C78.3536381,61.7012928 75.1996381,60.0302928 75.1996381,60.0302928 C75.1996381,60.0302928 65.3096381,68.4242928 65.0566381,65.8982928 C64.8046381,63.3712928 61.8676381,42.2052928 57.4516381,44.0082928 C55.1826381,44.9362928 54.4926381,48.8992928 54.4926381,48.8992928" id="Fill-50" fill="#88CFE8"></path>
            <path d="M27.0626381,3.3552928 C26.9566381,3.7212928 26.7916381,4.0682928 26.6016381,4.4132928 C26.5246381,4.5522928 26.3036381,4.4352928 26.3556381,4.2912928 C26.4736381,3.9612928 26.6286381,3.5782928 26.8296381,3.2192928 C26.9526381,2.7922928 26.9816381,2.3492928 26.7796381,1.9512928 C26.5016381,1.4042928 25.9776381,0.869292803 25.4486381,0.556292803 C25.1936381,0.402292803 24.3686381,0.114292803 23.8666381,0.160292803 C23.6956381,0.090292803 23.5116381,0.046292803 23.3266381,0.019292803 C22.8976381,-0.039707197 22.3806381,0.033292803 22.0186381,0.284292803 C21.8956381,0.368292803 21.8086381,0.472292803 21.7366381,0.590292803 C21.3416381,0.618292803 20.9686381,0.836292803 20.7306381,1.3252928 C20.3146381,2.1592928 20.3186381,3.0772928 20.3336381,3.9832928 C20.3656381,5.8952928 21.0996381,7.7032928 21.0956381,9.6092928 C21.1116381,9.6172928 21.1246381,9.6302928 21.1376381,9.6442928 C21.4316381,10.0782928 22.0906381,10.1712928 22.5796381,10.1842928 C23.2296381,10.1992928 23.7546381,10.1302928 24.0566381,9.4702928 C24.4256381,8.6492928 25.3806381,8.2822928 26.0906381,7.8252928 C27.1906381,7.1222928 27.5706381,6.2952928 27.7176381,5.0142928 C27.8336381,3.9912928 27.9856381,3.0562928 28.5386381,2.1922928 C27.8696381,2.1992928 27.3976381,2.7442928 27.0626381,3.3552928" id="Fill-51" fill="#E8A489"></path>
            <path d="M36.8906381,57.8942928 C36.8906381,57.8942928 23.4986381,46.4332928 20.2576381,42.6472928 C16.1986381,37.9052928 18.7016381,19.9512928 20.3386381,10.6582928 C20.4676381,9.9162928 20.5926381,9.2292928 20.7106381,8.6082928 C22.0216381,8.8652928 23.3436381,9.0572928 24.6736381,9.1302928 C24.7486381,9.6882928 24.8166381,10.3412928 24.8816381,11.0612928 C25.6786381,19.7322928 25.8956381,38.9172928 25.8626381,39.5162928 C29.1866381,41.6792928 35.1746381,44.7292928 36.1596381,46.9412928 C37.0226381,48.8802928 38.0956381,51.6312928 38.1246381,53.5292928 C38.1706381,56.2902928 36.8906381,57.8942928 36.8906381,57.8942928" id="Fill-52" fill="#88CFE8"></path>
            <path d="M55.2156381,168.229293 C53.9386381,166.928293 51.3586381,166.979293 50.6706381,168.931293 C50.4296381,169.552293 49.3106381,171.410293 50.3696381,176.552293 L51.2796381,176.552293 L51.2796381,174.065293 L51.3006381,173.795293 C51.4316381,174.274293 51.6086381,174.786293 51.7846381,175.340293 C52.5596381,177.780293 57.6596381,177.858293 59.0306381,176.830293 C59.4066381,176.548293 58.5626381,175.902293 57.8206381,174.239293 C56.8826381,172.140293 55.8856381,168.913293 55.2156381,168.229293" id="Fill-53" fill="#AB482C"></path>
            <path d="M55.9596381,170.462293 C55.4716381,168.919293 55.3416381,168.550293 54.8326381,166.379293 C55.1176381,160.913293 56.0596381,114.529293 54.0456381,109.089293 L46.4946381,110.901293 L51.5886381,165.240293 C51.4846381,166.617293 51.4206381,168.282293 51.5986381,169.580293 C51.9266381,171.962293 55.0406381,174.902293 56.2796381,174.611293 C57.0456381,174.431293 56.4486381,172.005293 55.9596381,170.462293" id="Fill-54" fill="#E8A489"></path>
            <path d="M44.7646381,168.136293 C43.4806381,165.095293 40.9916381,169.763293 40.9916381,169.763293 C40.4446381,170.438293 39.7976381,171.638293 38.1226381,172.846293 C35.4486381,174.781293 31.7816381,176.807293 34.0256381,177.251293 C35.5476381,177.551293 37.9726381,177.599293 39.7576381,176.832293 C42.2396381,175.765293 43.9016381,173.703293 43.9016381,173.703293 L43.5846381,176.694293 L44.5896381,176.577293 C44.5896381,176.577293 46.6276381,172.538293 44.7646381,168.136293" id="Fill-55" fill="#AB482C"></path>
            <path d="M40.0476381,108.918293 C38.3236381,114.142293 40.5586381,155.855293 41.2006381,164.741293 C41.1246381,166.578293 40.9106381,168.359293 39.8686381,169.956293 C38.9016381,171.441293 37.5236381,173.382293 36.2716381,174.615293 C38.4196381,175.179293 39.9946381,174.118293 41.2676381,173.158293 C42.7086381,172.069293 43.5906381,170.606293 44.0746381,168.975293 C44.3236381,168.140293 44.4666381,167.255293 44.5236381,166.357293 L47.8196381,111.087293 L40.0476381,108.918293" id="Fill-56" fill="#E8A489"></path>
            <path d="M46.6146381,30.3412928 C48.3556381,30.1812928 49.9706381,29.5502928 51.4886381,28.6912928 C52.2696381,28.8582928 53.1016381,28.9242928 53.3186381,28.8932928 C56.6056381,28.4562928 58.9546381,25.4792928 59.9896381,22.2662928 C62.1876381,15.4512928 58.1966381,6.7182928 52.3546381,4.1332928 C48.7416381,2.5342928 43.8086381,2.8492928 39.9866381,4.1402928 C35.7226381,5.5802928 32.0286381,10.5422928 31.2916381,15.1792928 C28.9796381,29.6912928 38.6606381,31.0772928 46.6146381,30.3412928" id="Fill-57" fill="#F4DDB4"></path>
            <path d="M59.2556381,44.5302928 L51.4426381,76.8992928 C51.4426381,76.8992928 50.1716381,78.1132928 46.9596381,78.3702928 C43.7496381,78.6282928 40.7056381,77.4942928 40.7056381,77.4942928 C40.3986381,76.2842928 32.3636381,44.5302928 32.3636381,44.5302928 C32.3636381,44.5302928 35.6046381,43.5732928 40.1276381,42.9382928 C43.4966381,42.4622928 47.5796381,42.1652928 51.5616381,42.5712928 C54.2566381,42.8492928 56.9026381,43.4452928 59.2556381,44.5302928" id="Fill-58" fill="#88CFE8"></path>
            <path d="M38.0116381,60.8712928 C38.0116381,60.8712928 50.3396381,62.1482928 53.7416381,59.5982928 C53.7416381,59.5982928 49.4896381,69.8032928 38.0116381,60.8712928" id="Fill-59" fill="#6BACBE"></path>
            <path d="M59.6576381,128.142293 C59.9546381,110.198293 58.8506381,85.9002928 51.4426381,76.8992928 C51.4426381,76.8992928 50.2496381,79.4442928 40.7056381,77.4942928 C40.7056381,77.4942928 30.9546381,82.1372928 34.2536381,129.393293 C42.7426381,129.765293 51.2426381,129.282293 59.6576381,128.142293" id="Fill-60" fill="#1E5264"></path>
            <path d="M51.5616381,42.5712928 C50.1076381,47.5582928 47.7866381,54.8892928 46.4466381,55.8932928 C44.7366381,57.1752928 41.2506381,46.5482928 40.1276381,42.9382928 C43.4966381,42.4622928 47.5796381,42.1652928 51.5616381,42.5712928" id="Fill-61" fill="#F8F2E9"></path>
            <path d="M46.3886381,45.3412928 C44.8266381,45.3412928 42.3926381,44.8682928 42.3926381,43.3052928 L43.1456381,33.5432928 C43.1456381,31.9792928 44.4126381,30.7142928 45.9736381,30.7142928 C46.7536381,30.7142928 47.4616381,31.0312928 47.9726381,31.5432928 C48.4836381,32.0542928 48.7996381,32.7612928 48.7996381,33.5432928 L49.4796381,42.4772928 C49.9326381,45.1162928 46.3886381,45.3412928 46.3886381,45.3412928" id="Fill-62" fill="#CA7A65"></path>
            <path d="M34.5386381,23.0422928 C34.5386381,23.0422928 31.1696381,18.8762928 30.4536381,23.0662928 C29.8816381,26.4022928 32.9536381,28.6872928 34.7486381,27.9832928 C36.5436381,27.2852928 34.5386381,23.0422928 34.5386381,23.0422928" id="Fill-63" fill="#E8A489"></path>
            <path d="M34.6096381,23.8082928 C34.6096381,23.8082928 32.2386381,21.1942928 31.7286381,22.5032928 C31.2156381,23.8102928 31.6296381,25.3032928 31.6296381,25.3032928 C31.6296381,25.3032928 31.7796381,23.5682928 33.1806381,24.3022928 C33.1806381,24.3022928 32.3476381,27.1822928 34.7216381,25.9882928 C34.7216381,25.9882928 35.6246381,25.0012928 34.6096381,23.8082928" id="Fill-64" fill="#CA7A65"></path>
            <path d="M35.9266381,27.9452928 C35.7306381,27.6122928 35.3226381,27.3532928 34.9066381,27.2742928 C34.4736381,26.9072928 33.8816381,26.8972928 33.3966381,27.1652928 C32.4036381,27.7152928 32.2196381,29.3442928 33.0716381,30.0762928 C33.8496381,30.7432928 35.1536381,30.5572928 35.7456381,29.7352928 C36.0906381,29.2572928 36.2416381,28.4832928 35.9266381,27.9452928" id="Fill-65" fill="#AB482C"></path>
            <path d="M57.5316381,22.5682928 C57.5316381,22.5682928 60.4806381,18.0992928 61.5976381,22.1992928 C62.4886381,25.4642928 59.6506381,28.0382928 57.7966381,27.5102928 C55.9436381,26.9842928 57.5316381,22.5682928 57.5316381,22.5682928" id="Fill-66" fill="#E8A489"></path>
            <path d="M57.5336381,23.3392928 C57.5336381,23.3392928 59.6396381,20.5072928 60.2746381,21.7622928 C60.9096381,23.0132928 60.6426381,24.5402928 60.6426381,24.5402928 C60.6426381,24.5402928 60.3266381,22.8272928 59.0006381,23.6932928 C59.0006381,23.6932928 60.1076381,26.4782928 57.6316381,25.5192928 C57.6316381,25.5192928 56.6336381,24.6232928 57.5336381,23.3392928" id="Fill-67" fill="#CA7A65"></path>
            <path d="M59.6876381,27.0462928 C59.4916381,26.7132928 59.0856381,26.4542928 58.6686381,26.3762928 C58.2346381,26.0082928 57.6426381,25.9982928 57.1566381,26.2672928 C56.1656381,26.8152928 55.9816381,28.4442928 56.8336381,29.1762928 C57.6116381,29.8452928 58.9156381,29.6572928 59.5066381,28.8372928 C59.8516381,28.3572928 60.0036381,27.5842928 59.6876381,27.0462928" id="Fill-68" fill="#AB482C"></path>
            <path d="M57.4886381,24.0312928 C57.1906381,17.8232928 55.3506381,11.5432928 50.8216381,8.9122928 C48.4456381,11.1992928 45.0726381,12.3902928 42.1086381,13.6662928 C39.3916381,14.8342928 36.6116381,16.1282928 34.8126381,18.3062928 C34.4416381,20.4912928 34.3566381,22.8322928 34.4666381,25.1432928 C34.8686381,33.4832928 41.2376381,38.1142928 47.9926381,37.6412928 C54.3406381,37.1982928 57.8906381,32.3742928 57.4886381,24.0312928" id="Fill-69" fill="#E8A489"></path>
            <path d="M49.2186381,22.8912928 C49.2186381,24.5632928 50.5776381,25.9212928 52.2476381,25.9212928 C53.9226381,25.9212928 55.2786381,24.5632928 55.2786381,22.8912928 C55.2786381,21.2202928 53.9226381,19.8632928 52.2476381,19.8632928 C50.5776381,19.8632928 49.2186381,21.2202928 49.2186381,22.8912928" id="Fill-70" fill="#FFFFFE"></path>
            <path d="M53.9786381,22.7052928 C53.9786381,24.0852928 53.0806381,25.2032928 51.9756381,25.2032928 C50.8686381,25.2032928 49.9726381,24.0852928 49.9726381,22.7052928 C49.9726381,21.3222928 50.8686381,20.2002928 51.9756381,20.2002928 C53.0806381,20.2002928 53.9786381,21.3222928 53.9786381,22.7052928" id="Fill-71" fill="#5A7192"></path>
            <path d="M53.3966381,22.7052928 C53.3966381,23.6822928 52.7616381,24.4812928 51.9756381,24.4812928 C51.1906381,24.4812928 50.5526381,23.6822928 50.5526381,22.7052928 C50.5526381,21.7202928 51.1906381,20.9242928 51.9756381,20.9242928 C52.7616381,20.9242928 53.3966381,21.7202928 53.3966381,22.7052928" id="Fill-72" fill="#291413"></path>
            <path d="M53.4896381,21.0192928 C53.4896381,21.2872928 53.1576381,21.5032928 52.7556381,21.5032928 C52.3496381,21.5032928 52.0216381,21.2872928 52.0216381,21.0192928 C52.0216381,20.7522928 52.3496381,20.5342928 52.7556381,20.5342928 C53.1576381,20.5342928 53.4896381,20.7522928 53.4896381,21.0192928" id="Fill-73" fill="#FFFFFE"></path>
            <path d="M52.1766381,19.4222928 C54.1776381,19.2232928 55.7206381,21.0312928 55.7206381,22.8982928 C55.7206381,23.0932928 55.4816381,23.1282928 55.3806381,22.9902928 C54.5596381,21.8662928 54.3006381,20.7672928 52.8036381,20.3332928 C50.5996381,19.7012928 49.3936381,21.9602928 49.2696381,23.7372928 C49.2566381,23.9092928 49.0196381,23.9072928 49.0046381,23.7372928 C48.8046381,21.6142928 49.9426381,19.6452928 52.1766381,19.4222928" id="Fill-74" fill="#251413"></path>
            <path d="M45.2226381,28.0342928 C45.2226381,28.0342928 46.7206381,30.5652928 48.3396381,27.9832928 L45.2226381,28.0342928" id="Fill-75" fill="#CA7A65"></path>
            <path d="M40.4136381,21.1762928 C38.5206381,21.0012928 37.0626381,22.5952928 37.0626381,24.2412928 C37.0626381,24.4122928 37.2886381,24.4432928 37.3846381,24.3222928 C38.1596381,23.3332928 38.4056381,22.3622928 39.8206381,21.9792928 C41.9026381,21.4232928 43.0426381,23.4132928 43.1646381,24.9822928 C43.1726381,25.1342928 43.3966381,25.1312928 43.4146381,24.9822928 C43.5996381,23.1092928 42.5246381,21.3742928 40.4136381,21.1762928" id="Fill-76" fill="#251413"></path>
            <path d="M43.2126381,27.7102928 C43.2126381,29.0822928 41.7876381,30.1982928 40.0266381,30.1982928 C38.2706381,30.1982928 36.8436381,29.0822928 36.8436381,27.7102928 C36.8436381,26.3392928 38.2706381,25.2232928 40.0266381,25.2232928 C41.7876381,25.2232928 43.2126381,26.3392928 43.2126381,27.7102928" id="Fill-77" fill="#E37F6B"></path>
            <path d="M55.7986381,27.7102928 C55.7986381,29.0822928 54.3756381,30.1982928 52.6156381,30.1982928 C50.8576381,30.1982928 49.4316381,29.0822928 49.4316381,27.7102928 C49.4316381,26.3392928 50.8576381,25.2232928 52.6156381,25.2232928 C54.3756381,25.2232928 55.7986381,26.3392928 55.7986381,27.7102928" id="Fill-78" fill="#E37F6B"></path>
            <path d="M43.6996381,17.2412928 C43.1766381,16.8812928 42.3446381,16.8412928 41.7286381,16.7482928 C41.0066381,16.6372928 40.2936381,16.6792928 39.5926381,16.8862928 C38.1916381,17.3022928 37.5306381,18.3122928 36.8666381,19.5202928 C36.7956381,19.6512928 36.9746381,19.8022928 37.0816381,19.6842928 C37.8886381,18.8072928 38.8386381,17.9452928 40.0106381,17.6372928 C40.7286381,17.4482928 41.4516381,17.5502928 42.1696381,17.6902928 C42.6726381,17.7892928 43.2386381,17.9322928 43.6996381,17.6542928 C43.8626381,17.5572928 43.8446381,17.3432928 43.6996381,17.2412928" id="Fill-79" fill="#F4DDB4"></path>
            <path d="M50.0666381,17.2412928 C50.5886381,16.8812928 51.4216381,16.8412928 52.0356381,16.7482928 C52.7586381,16.6372928 53.4706381,16.6792928 54.1726381,16.8862928 C55.5746381,17.3022928 56.2356381,18.3122928 56.8986381,19.5202928 C56.9706381,19.6512928 56.7916381,19.8022928 56.6846381,19.6842928 C55.8766381,18.8072928 54.9266381,17.9452928 53.7566381,17.6372928 C53.0366381,17.4482928 52.3136381,17.5502928 51.5966381,17.6902928 C51.0936381,17.7892928 50.5286381,17.9322928 50.0666381,17.6542928 C49.9056381,17.5572928 49.9206381,17.3432928 50.0666381,17.2412928" id="Fill-80" fill="#F4DDB4"></path>
            <path d="M47.5606381,29.7302928 C47.1116381,29.8292928 46.8136381,30.1392928 46.7746381,30.6042928 C46.2776381,30.4152928 46.1736381,29.8502928 45.6966381,29.6712928 C45.2146381,29.4902928 44.7636381,29.8022928 44.3016381,29.9462928 C43.4906381,30.2032928 42.3606381,29.9432928 41.9936381,29.1782928 C42.7776381,30.8152928 43.4256381,32.8432928 45.5476381,33.1592928 C46.1146381,33.2452928 46.7806381,33.3262928 47.3446381,33.2242928 C49.3036381,32.8712928 50.0486381,31.1422928 50.6106381,29.4252928 C49.4886381,30.1382928 48.7416381,29.9322928 47.5606381,29.7302928" id="Fill-81" fill="#B94546"></path>
            <path d="M43.1076381,30.3992928 C43.1076381,30.3992928 46.7036381,34.5092928 49.5926381,30.5272928 C49.5926381,30.5272928 46.3826381,31.8762928 43.1076381,30.3992928" id="Fill-82" fill="#FFFFFE"></path>
        </g>
    </g>
</svg>