<?xml version="1.0" encoding="UTF-8"?>
<svg width="62px" height="175px" viewBox="0 0 62 175" version="1.1" xmlns="http://www.w3.org/2000/svg" xmlns:xlink="http://www.w3.org/1999/xlink">
    <!-- Generator: Sketch 64 (93537) - https://sketch.com -->
    <title>Group 3</title>
    <desc>Created with Sketch.</desc>
    <g id="Page-2" stroke="none" stroke-width="1" fill="none" fill-rule="evenodd">
        <g id="Group-3" transform="translate(0.891929, 0.263407)">
            <path d="M18.1420713,34.6095934 C19.0770713,31.3865934 21.4210713,28.8955934 22.8030713,25.8645934 C24.1430713,22.9275934 24.5200713,19.7665934 25.2020713,16.6315934 C26.3410713,11.3785934 29.0360713,5.22559345 35.2230713,5.19259345 L47.6810713,6.09159345 C48.1480713,12.9025934 51.0850713,18.2475934 55.0020713,23.6565934 C58.6110713,28.6385934 62.1230713,34.1765934 57.9910713,39.9995934 C54.8110713,44.4835934 49.6820713,45.0625934 44.8560713,43.4345934 C40.9840713,42.1295934 37.1330713,39.6865934 33.2940713,42.1915934 C30.4080713,44.0705934 27.5490713,46.5315934 23.9180713,46.6775934 C17.8760713,46.9235934 16.8600713,39.0285934 18.1420713,34.6095934" id="Fill-217" fill="#F4DDB4"></path>
            <path d="M23.3140713,41.4805934 C23.3140713,41.4805934 17.5930713,52.6775934 15.6280713,57.3435934 C13.6630713,62.0115934 8.25807131,63.7295934 8.25807131,63.7295934 C8.25807131,63.7295934 9.48707131,68.1525934 13.4160713,67.1705934 C17.3470713,66.1865934 27.9100713,55.1325934 27.4180713,49.9745934 C26.9270713,44.8155934 24.0860713,40.1575934 23.3140713,41.4805934" id="Fill-218" fill="#88CFE8"></path>
            <path d="M27.3540713,165.177593 C28.6290713,163.878593 31.2100713,163.929593 31.8990713,165.881593 C32.1390713,166.502593 33.2580713,168.360593 32.1990713,173.501593 L31.2890713,173.501593 L31.2890713,171.014593 L31.2690713,170.745593 C31.1370713,171.224593 30.9610713,171.736593 30.7840713,172.290593 C30.0080713,174.730593 24.9100713,174.808593 23.5380713,173.780593 C23.1620713,173.498593 24.0050713,172.851593 24.7490713,171.189593 C25.6850713,169.090593 26.6830713,165.863593 27.3540713,165.177593" id="Fill-219" fill="#AB482C"></path>
            <path d="M26.6090713,167.412593 C27.0970713,165.869593 27.2270713,165.500593 27.7380713,163.329593 C27.4520713,157.863593 26.5090713,111.478593 28.5230713,106.039593 L36.0750713,107.850593 L30.9820713,162.189593 C31.0840713,163.567593 31.1480713,165.232593 30.9700713,166.529593 C30.6410713,168.912593 27.5280713,171.852593 26.2900713,171.561593 C25.5230713,171.381593 26.1210713,168.955593 26.6090713,167.412593" id="Fill-220" fill="#E8A489"></path>
            <path d="M37.8040713,165.086593 C39.0880713,162.045593 41.5770713,166.712593 41.5770713,166.712593 C42.1250713,167.388593 42.7720713,168.588593 44.4460713,169.796593 C47.1220713,171.729593 50.7870713,173.757593 48.5450713,174.201593 C47.0210713,174.501593 44.5960713,174.549593 42.8110713,173.781593 C40.3290713,172.715593 38.6680713,170.653593 38.6680713,170.653593 L38.9840713,173.644593 L37.9780713,173.527593 C37.9780713,173.527593 35.9410713,169.488593 37.8040713,165.086593" id="Fill-221" fill="#AB482C"></path>
            <path d="M42.5200713,105.868593 C44.2450713,111.092593 42.0100713,152.805593 41.3680713,161.691593 C41.4460713,163.528593 41.6600713,165.309593 42.7010713,166.906593 C43.6690713,168.391593 45.0450713,170.331593 46.2960713,171.565593 C44.1490713,172.129593 42.5750713,171.067593 41.3000713,170.108593 C39.8600713,169.019593 38.9780713,167.556593 38.4950713,165.925593 C38.2460713,165.089593 38.1020713,164.205593 38.0450713,163.307593 L34.7500713,108.037593 L42.5200713,105.868593" id="Fill-222" fill="#E8A489"></path>
            <path d="M23.3140713,41.4805934 L31.1260713,73.8495934 C31.1260713,73.8495934 32.3980713,75.0635934 35.6090713,75.3205934 C38.8190713,75.5775934 41.8650713,74.4445934 41.8650713,74.4445934 C42.1700713,73.2345934 50.2050713,41.4805934 50.2050713,41.4805934 C50.2050713,41.4805934 46.9630713,40.5235934 42.4410713,39.8885934 C39.0720713,39.4125934 34.9890713,39.1145934 31.0070713,39.5215934 C28.3130713,39.7985934 25.6670713,40.3955934 23.3140713,41.4805934" id="Fill-223" fill="#88CFE8"></path>
            <path d="M44.5570713,57.8215934 C44.5570713,57.8215934 32.2300713,59.0975934 28.8280713,56.5475934 C28.8280713,56.5475934 33.0790713,66.7535934 44.5570713,57.8215934" id="Fill-224" fill="#6BACBE"></path>
            <path d="M22.9110713,125.092593 C22.6130713,107.148593 23.7180713,82.8505934 31.1260713,73.8495934 C31.1260713,73.8495934 32.3200713,76.3935934 41.8640713,74.4445934 C41.8640713,74.4445934 51.6150713,79.0875934 48.3150713,126.343593 C39.8260713,126.715593 31.3270713,126.232593 22.9110713,125.092593" id="Fill-225" fill="#1E5264"></path>
            <path d="M31.0070713,39.5215934 C32.4620713,44.5085934 34.7820713,51.8395934 36.1220713,52.8435934 C37.8320713,54.1255934 41.3190713,43.4985934 42.4410713,39.8885934 C39.0720713,39.4125934 34.9890713,39.1145934 31.0070713,39.5215934" id="Fill-226" fill="#F8F2E9"></path>
            <path d="M35.9550713,27.2905934 C34.2130713,27.1315934 32.5970713,26.5005934 31.0810713,25.6415934 C30.3000713,25.8085934 29.4670713,25.8745934 29.2510713,25.8435934 C25.9630713,25.4065934 23.6150713,22.4295934 22.5790713,19.2165934 C20.3810713,12.4015934 24.3720713,3.66859345 30.2150713,1.08359345 C33.8280713,-0.51540655 38.7600713,-0.20040655 42.5830713,1.09059345 C46.8460713,2.53059345 50.5400713,7.49259345 51.2780713,12.1295934 C53.5890713,26.6415934 43.9080713,28.0275934 35.9550713,27.2905934" id="Fill-227" fill="#F4DDB4"></path>
            <path d="M36.1810713,42.2915934 C37.7430713,42.2915934 40.1770713,41.8185934 40.1770713,40.2555934 L39.7740713,35.0475934 L39.4240713,30.4925934 C39.4240713,28.9295934 38.1580713,27.6645934 36.5940713,27.6645934 C35.8160713,27.6645934 35.1080713,27.9815934 34.5960713,28.4935934 C34.0860713,29.0045934 33.7680713,29.7105934 33.7680713,30.4925934 L33.0880713,39.4265934 C32.6360713,42.0665934 36.1810713,42.2915934 36.1810713,42.2915934" id="Fill-228" fill="#CA7A65"></path>
            <path d="M48.0300713,19.9925934 C48.0300713,19.9925934 51.3990713,15.8265934 52.1160713,20.0165934 C52.6870713,23.3525934 49.6160713,25.6375934 47.8200713,24.9335934 C46.0270713,24.2355934 48.0300713,19.9925934 48.0300713,19.9925934" id="Fill-229" fill="#E8A489"></path>
            <path d="M47.9610713,20.7585934 C47.9610713,20.7585934 50.3310713,18.1445934 50.8400713,19.4535934 C51.3530713,20.7605934 50.9410713,22.2535934 50.9410713,22.2535934 C50.9410713,22.2535934 50.7890713,20.5185934 49.3880713,21.2525934 C49.3880713,21.2525934 50.2210713,24.1325934 47.8460713,22.9385934 C47.8460713,22.9385934 46.9450713,21.9505934 47.9610713,20.7585934" id="Fill-230" fill="#CA7A65"></path>
            <path d="M46.8240713,26.6855934 C47.4160713,27.5075934 48.7190713,27.6935934 49.4980713,27.0265934 C50.3480713,26.2945934 50.1660713,24.6655934 49.1740713,24.1155934 C48.6870713,23.8475934 48.0940713,23.8575934 47.6630713,24.2245934 C47.2470713,24.3025934 46.8380713,24.5625934 46.6420713,24.8955934 C46.3280713,25.4335934 46.4770713,26.2075934 46.8240713,26.6855934" id="Fill-231" fill="#AB482C"></path>
            <path d="M25.0390713,19.5185934 C25.0390713,19.5185934 22.0880713,15.0495934 20.9690713,19.1495934 C20.0810713,22.4145934 22.9190713,24.9885934 24.7730713,24.4605934 C26.6270713,23.9345934 25.0390713,19.5185934 25.0390713,19.5185934" id="Fill-232" fill="#E8A489"></path>
            <path d="M25.0370713,20.2895934 C25.0370713,20.2895934 22.9290713,17.4575934 22.2960713,18.7125934 C21.6590713,19.9635934 21.9260713,21.4895934 21.9260713,21.4895934 C21.9260713,21.4895934 22.2440713,19.7775934 23.5690713,20.6435934 C23.5690713,20.6435934 22.4620713,23.4285934 24.9380713,22.4695934 C24.9380713,22.4695934 25.9340713,21.5735934 25.0370713,20.2895934" id="Fill-233" fill="#CA7A65"></path>
            <path d="M23.0620713,25.7875934 C23.6540713,26.6075934 24.9600713,26.7955934 25.7360713,26.1265934 C26.5880713,25.3945934 26.4050713,23.7655934 25.4130713,23.2175934 C24.9260713,22.9485934 24.3350713,22.9585934 23.9020713,23.3265934 C23.4850713,23.4035934 23.0770713,23.6635934 22.8810713,23.9965934 C22.5660713,24.5345934 22.7160713,25.3075934 23.0620713,25.7875934" id="Fill-234" fill="#AB482C"></path>
            <path d="M25.0810713,20.9815934 C25.3790713,14.7735934 27.2190713,8.49359345 31.7470713,5.86259345 C34.1250713,8.14959345 37.4960713,9.33959345 40.4610713,10.6165934 C43.1770713,11.7845934 45.9580713,13.0785934 47.7550713,15.2565934 C48.1280713,17.4415934 48.2130713,19.7825934 48.1020713,22.0935934 C47.7010713,30.4335934 41.3310713,35.0645934 34.5770713,34.5915934 C28.2280713,34.1485934 24.6770713,29.3225934 25.0810713,20.9815934" id="Fill-235" fill="#E8A489"></path>
            <path d="M37.8870713,13.6995934 C38.4090713,13.3395934 39.2420713,13.2995934 39.8570713,13.2065934 C40.5800713,13.0945934 41.2930713,13.1385934 41.9940713,13.3455934 C43.3960713,13.7615934 44.0560713,14.7735934 44.7200713,15.9775934 C44.7930713,16.1095934 44.6120713,16.2605934 44.5060713,16.1445934 C43.6970713,15.2655934 42.7490713,14.4045934 41.5770713,14.0955934 C40.8570713,13.9065934 40.1350713,14.0085934 39.4190713,14.1485934 C38.9150713,14.2485934 38.3480713,14.3935934 37.8870713,14.1135934 C37.7250713,14.0155934 37.7420713,13.8025934 37.8870713,13.6995934" id="Fill-236" fill="#F4DDB4"></path>
            <path d="M32.0240713,13.9465934 C31.5570713,13.5855934 30.8120713,13.5475934 30.2620713,13.4515934 C29.6160713,13.3405934 28.9790713,13.3835934 28.3520713,13.5905934 C27.0990713,14.0055934 26.5070713,15.0175934 25.9140713,16.2235934 C25.8490713,16.3565934 26.0110713,16.5065934 26.1070713,16.3895934 C26.8290713,15.5115934 27.6750713,14.6505934 28.7240713,14.3405934 C29.3690713,14.1505934 30.0150713,14.2545934 30.6560713,14.3955934 C31.1060713,14.4945934 31.6110713,14.6385934 32.0240713,14.3585934 C32.1680713,14.2605934 32.1540713,14.0475934 32.0240713,13.9465934" id="Fill-237" fill="#F4DDB4"></path>
            <path d="M36.8750713,24.7075934 C36.8750713,24.7075934 35.4100713,27.1835934 33.8280713,24.6575934 L36.8750713,24.7075934" id="Fill-238" fill="#CA7A65"></path>
            <path d="M38.3880713,19.6755934 C38.3880713,21.3115934 39.7160713,22.6405934 41.3530713,22.6405934 C42.9900713,22.6405934 44.3140713,21.3115934 44.3140713,19.6755934 C44.3140713,18.0425934 42.9900713,16.7135934 41.3530713,16.7135934 C39.7160713,16.7135934 38.3880713,18.0425934 38.3880713,19.6755934" id="Fill-239" fill="#FFFFFE"></path>
            <path d="M39.2770713,21.3115934 C39.8010713,22.5575934 40.9890713,23.2485934 41.9300713,22.8495934 C42.8770713,22.4545934 43.2150713,21.1255934 42.6920713,19.8795934 C42.1670713,18.6305934 40.9810713,17.9415934 40.0380713,18.3385934 C39.0930713,18.7345934 38.7540713,20.0645934 39.2770713,21.3115934" id="Fill-240" fill="#5A7192"></path>
            <path d="M39.7720713,21.1035934 C40.1420713,21.9895934 40.9890713,22.4785934 41.6580713,22.1975934 C42.3290713,21.9155934 42.5700713,20.9685934 42.1980713,20.0855934 C41.8260713,19.1995934 40.9820713,18.7085934 40.3100713,18.9905934 C39.6430713,19.2715934 39.4010713,20.2175934 39.7720713,21.1035934" id="Fill-241" fill="#291413"></path>
            <path d="M39.0570713,19.6185934 C39.1580713,19.8585934 39.5230713,19.9375934 39.8670713,19.7935934 C40.2120713,19.6475934 40.4110713,19.3335934 40.3100713,19.0915934 C40.2090713,18.8515934 39.8450713,18.7725934 39.5010713,18.9185934 C39.1550713,19.0635934 38.9570713,19.3785934 39.0570713,19.6185934" id="Fill-242" fill="#FFFFFE"></path>
            <path d="M38.8410713,24.3865934 C38.8410713,25.7325934 40.2360713,26.8235934 41.9560713,26.8235934 C43.6730713,26.8235934 45.0700713,25.7325934 45.0700713,24.3865934 C45.0700713,23.0455934 43.6730713,21.9555934 41.9560713,21.9555934 C40.2360713,21.9555934 38.8410713,23.0455934 38.8410713,24.3865934" id="Fill-243" fill="#E37F6B"></path>
            <path d="M38.3880713,19.6755934 C38.3880713,19.6755934 38.1490713,17.7695934 40.0150713,16.8055934 C42.8680713,15.3345934 44.4290713,18.7345934 45.3480713,19.2875934 C45.3480713,19.2875934 44.7530713,19.8815934 44.3140713,19.6755934 C44.3140713,19.6755934 40.9350713,15.6405934 38.3880713,19.6755934" id="Fill-244" fill="#27221F"></path>
            <path d="M32.9660713,20.0865934 C32.9660713,21.7245934 31.6400713,23.0495934 30.0040713,23.0495934 C28.3680713,23.0495934 27.0400713,21.7245934 27.0400713,20.0865934 C27.0400713,18.4535934 28.3680713,17.1255934 30.0040713,17.1255934 C31.6400713,17.1255934 32.9660713,18.4535934 32.9660713,20.0865934" id="Fill-245" fill="#FFFFFE"></path>
            <path d="M27.9880713,21.4095934 C28.2660713,22.7325934 29.3480713,23.6245934 30.4080713,23.4005934 C31.4660713,23.1775934 32.0990713,21.9255934 31.8190713,20.6025934 C31.5420713,19.2815934 30.4570713,18.3895934 29.3990713,18.6115934 C28.3400713,18.8365934 27.7070713,20.0865934 27.9880713,21.4095934" id="Fill-246" fill="#5A7192"></path>
            <path d="M28.5430713,21.2935934 C28.7410713,22.2315934 29.5100713,22.8665934 30.2610713,22.7095934 C31.0130713,22.5495934 31.4620713,21.6585934 31.2650713,20.7195934 C31.0670713,19.7795934 30.2960713,19.1445934 29.5450713,19.3035934 C28.7930713,19.4625934 28.3420713,20.3535934 28.5430713,21.2935934" id="Fill-247" fill="#291413"></path>
            <path d="M28.1160713,19.7005934 C28.1700713,19.9555934 28.5300713,20.0975934 28.9170713,20.0155934 C29.3030713,19.9325934 29.5750713,19.6605934 29.5200713,19.4045934 C29.4670713,19.1495934 29.1090713,19.0075934 28.7200713,19.0905934 C28.3350713,19.1715934 28.0630713,19.4455934 28.1160713,19.7005934" id="Fill-248" fill="#FFFFFE"></path>
            <path d="M33.0190713,19.7255934 C33.0190713,19.7255934 33.2580713,18.0315934 31.3930713,17.1775934 C28.5440713,15.8705934 26.9800713,18.8895934 26.0620713,19.3805934 C26.0620713,19.3805934 26.6580713,19.9075934 27.0920713,19.7255934 C27.0920713,19.7255934 30.1500713,16.0535934 33.0190713,19.7255934" id="Fill-249" fill="#27221F"></path>
            <path d="M26.5310713,24.6575934 C26.5310713,25.8515934 27.9240713,26.8235934 29.6460713,26.8235934 C31.3650713,26.8235934 32.7570713,25.8515934 32.7570713,24.6575934 C32.7570713,23.4645934 31.3650713,22.4935934 29.6460713,22.4935934 C27.9240713,22.4935934 26.5310713,23.4645934 26.5310713,24.6575934" id="Fill-250" fill="#E37F6B"></path>
            <path d="M31.2300713,26.1475934 C31.2300713,26.1475934 37.0030713,26.8845934 39.7040713,25.5335934 C39.7040713,25.5335934 34.0540713,35.1125934 31.2300713,26.1475934" id="Fill-251" fill="#FFFFFE"></path>
            <path d="M44.6040713,64.6285934 C46.2520713,64.7395934 47.8400713,65.1625934 49.3950713,65.5755934 C49.6040713,65.6315934 49.8150713,65.6785934 50.0250713,65.7305934 C50.2050713,64.6205934 50.2950713,63.5065934 50.3240713,62.3965934 C48.3020713,62.1915934 46.3250713,61.8265934 44.3410713,61.4865934 C44.1310713,60.7575934 43.5880713,60.0715934 43.1490713,59.6155934 C42.5060713,58.9475934 41.6940713,58.5705934 41.0210713,57.9615934 C40.4620713,57.4545934 40.1200713,56.6785934 39.4960713,56.2645934 C39.3990713,56.2025934 39.2490713,56.2155934 39.1800713,56.3515934 C38.5200713,57.6855934 40.2560713,58.8855934 40.8440713,59.7345934 C40.9630713,59.9065934 41.1030713,60.0625934 41.2530713,60.2105934 C40.7250713,60.0905934 40.1750713,60.0285934 39.6270713,59.9995934 C39.1370713,59.9695934 38.5860713,60.0005934 38.0460713,60.1215934 C37.3320713,59.9365934 36.6170713,59.7535934 35.9010713,59.5785934 C34.5630713,59.2505934 32.2460713,58.6805934 31.0170713,60.0115934 C30.8550713,60.1865934 30.8790713,60.5105934 31.0940713,60.5815934 C31.7810713,60.8015934 32.5990713,60.6645934 33.3410713,60.6785934 C34.2020713,60.6955934 35.0320713,60.8875934 35.8500713,61.0615934 C35.9580713,61.0855934 36.0710713,61.1095934 36.1860713,61.1335934 C35.6460713,61.7525934 35.8110713,62.3515934 36.2030713,62.7935934 C36.1450713,62.8525934 36.0910713,62.9145934 36.0460713,62.9845934 C34.9570713,64.7135934 37.5230713,65.1725934 38.5380713,65.3915934 C39.4230713,65.5835934 40.5190713,65.5745934 41.4460713,65.2635934 C42.2920713,64.9785934 43.1360713,65.0675934 43.9270713,64.5515934 C44.1500713,64.5835934 44.3750713,64.6115934 44.6040713,64.6285934" id="Fill-252" fill="#E8A489"></path>
            <path d="M46.7730713,49.7925934 C47.1990713,52.6995934 53.9480713,60.7825934 53.9480713,60.7825934 C51.4920713,60.5365934 46.5400713,61.0965934 46.5400713,61.0965934 L45.8420713,65.6955934 C46.4070713,65.6265934 57.9780713,70.4505934 59.8420713,66.4325934 C63.0360713,59.5545934 50.2050713,41.4805934 50.2050713,41.4805934 C47.6670713,42.1745934 46.7730713,49.7925934 46.7730713,49.7925934" id="Fill-253" fill="#88CFE8"></path>
            <path d="M8.24607131,78.0525934 C8.38107131,78.5115934 8.83707131,78.9175934 9.31207131,78.9605934 L30.3000713,80.6525934 C30.7850713,80.6845934 31.0400713,80.3175934 30.9240713,79.8355934 L23.9470713,52.6605934 C23.8170713,52.1875934 23.3240713,51.7335934 22.8110713,51.7295934 L0.619071308,51.3625934 C0.115071308,51.3495934 -0.102928692,51.7705934 0.046071308,52.2165934 L8.24607131,78.0525934" id="Fill-254" fill="#BCBCB7"></path>
            <path d="M3.68807131,65.9885934 C3.90407131,65.7185934 4.22107131,65.5015934 4.66507131,65.3635934 C5.06607131,65.2345934 5.53507131,65.2055934 5.87407131,65.5095934 C6.71807131,66.2735934 5.47507131,66.3005934 4.97207131,66.5095934 C5.69507131,66.3655934 7.35707131,66.6325934 7.53307131,67.4685934 C7.74407131,68.4795934 6.23507131,69.1995934 5.58507131,69.5545934 C8.25607131,69.7905934 6.02307131,71.6695934 4.75707131,70.3555934 C3.78207131,69.3415934 2.74507131,67.1715934 3.68807131,65.9885934" id="Fill-255" fill="#E8A489"></path>
            <path d="M16.9000713,64.1395934 C17.6450713,65.8145934 17.4180713,67.5385934 16.3950713,67.9935934 C15.3740713,68.4485934 13.9420713,67.4605934 13.1980713,65.7875934 C12.4540713,64.1135934 12.6800713,62.3875934 13.7030713,61.9335934 C14.7250713,61.4785934 16.1570713,62.4665934 16.9000713,64.1395934" id="Fill-256" fill="#D0CFCA"></path>
        </g>
    </g>
</svg>